<?xml version="1.0" encoding="UTF-8"?>
<svg version="1.1" xmlns="http://www.w3.org/2000/svg" width="906" height="852">
<path d="M0 0 C298.98 0 597.96 0 906 0 C906 281.16 906 562.32 906 852 C607.02 852 308.04 852 0 852 C0 570.84 0 289.68 0 0 Z " fill="#0B1017" transform="translate(0,0)"/>
<path d="M0 0 C34.7325 -0.0825 69.465 -0.165 105.25 -0.25 C116.18801758 -0.28641602 127.12603516 -0.32283203 138.39550781 -0.36035156 C151.82568359 -0.37841797 151.82568359 -0.37841797 158.12713623 -0.3817749 C162.49717451 -0.38547843 166.86701539 -0.40037541 171.23699951 -0.42230225 C176.83411393 -0.45000855 182.43094676 -0.45791542 188.02812338 -0.4522891 C190.06794235 -0.45346329 192.10777253 -0.46123402 194.14753199 -0.47686052 C223.15163054 -0.68849905 251.826709 6.38945118 274 26 C274.84175781 26.721875 275.68351562 27.44375 276.55078125 28.1875 C284.49439392 35.13062731 291.16240519 42.4293328 296.9375 51.25 C297.52253296 52.13594849 297.52253296 52.13594849 298.11938477 53.03979492 C300.20684603 56.32846523 301.54016999 59.11699106 302 63 C302.66 63 303.32 63 304 63 C304.67756882 64.55780332 305.34159457 66.12150096 306 67.6875 C306.37125 68.55761719 306.7425 69.42773438 307.125 70.32421875 C308.01870488 73.0572002 308.16449676 75.14700934 308 78 C308.66 78 309.32 78 310 78 C310.12117188 78.80824219 310.24234375 79.61648438 310.3671875 80.44921875 C310.53476562 81.51785156 310.70234375 82.58648437 310.875 83.6875 C311.03742188 84.74324219 311.19984375 85.79898438 311.3671875 86.88671875 C311.86128541 89.91935367 311.86128541 89.91935367 313.02075195 92.23217773 C314.91572809 97.58828456 314.33190579 103.4489038 314.31567383 109.07958984 C314.31255735 111.33352052 314.33583529 113.58607936 314.36132812 115.83984375 C314.49649657 146.56996677 302.04068659 173.88616885 280.75 195.6875 C272.06374714 204.27142622 262.46880212 210.97506891 251.625 216.5625 C250.98328857 216.89741455 250.34157715 217.2323291 249.68041992 217.57739258 C245.10205617 219.8201821 241.08075221 220.5888083 236 221 C238.79411039 227.4772559 242.69540482 232.67664307 247.03515625 238.1953125 C250.38328427 242.46068927 253.60117337 246.81864334 256.8125 251.1875 C257.40579102 251.99396973 257.99908203 252.80043945 258.61035156 253.63134766 C263.18561613 259.86394064 267.71321128 266.13023551 272.22119141 272.41162109 C274.90781098 276.14446041 277.62599772 279.84699772 280.41015625 283.5078125 C280.9604248 284.23202393 281.51069336 284.95623535 282.07763672 285.70239258 C283.11964237 287.06818798 284.16653853 288.43027188 285.21923828 289.7878418 C287.730306 293.07696857 289.7012988 296.01275948 291 300 C291.66 300 292.32 300 293 300 C294.3671875 301.9765625 294.3671875 301.9765625 295.875 304.625 C296.40480469 305.53507812 296.93460938 306.44515625 297.48046875 307.3828125 C297.98191406 308.24648438 298.48335937 309.11015625 299 310 C301.05311785 313.36956883 302.63834119 315.75889413 306 318 C307.3515625 320.0234375 307.3515625 320.0234375 308.625 322.375 C309.05039062 323.14585937 309.47578125 323.91671875 309.9140625 324.7109375 C311 327 311 327 311.3984375 329.1640625 C311.59695313 329.76992188 311.79546875 330.37578125 312 331 C312.5775 331.27328125 313.155 331.5465625 313.75 331.828125 C317.16217898 333.60530155 318.88331901 336.64553455 321 339.75 C321.42539062 340.3584375 321.85078125 340.966875 322.2890625 341.59375 C324.24982249 344.40858336 326.1659883 347.24945311 328.06640625 350.10546875 C333.87352414 359.00256298 333.87352414 359.00256298 340.875 366.9375 C342.92642203 368.92858609 343.81802568 370.44970405 345 373 C332.5786026 373.41850508 320.15890071 373.73758465 307.7318697 373.93261909 C301.95989519 374.02627226 296.19276778 374.15306886 290.42358398 374.35791016 C284.84693246 374.55465811 279.27491456 374.6613337 273.69505882 374.70779037 C271.57546181 374.74085371 269.45609733 374.80543661 267.33849525 374.90314102 C251.2304369 375.61625223 251.2304369 375.61625223 245.8765831 371.28029633 C241.99467411 367.04839359 239.12221774 362.33284759 236.3553524 357.32453537 C234.15979367 353.55898042 231.49007515 350.1805536 228.8125 346.75 C224.6878402 341.29751111 220.66592675 335.78202738 216.70922852 330.20678711 C210.76205516 321.83253367 204.64650779 313.58091881 198.54296875 305.3203125 C193.27263213 298.18420502 188.0050586 291.05038671 182.875 283.8125 C178.92230481 278.23953045 174.85038897 272.76441444 170.73950195 267.30737305 C159.97268854 253.00793898 149.46073972 238.52406359 139 224 C132.9051851 215.54413068 126.67146664 207.19789226 120.40478516 198.86914062 C118.5146174 196.35417289 116.63303327 193.83281222 114.75 191.3125 C110.53102581 185.68463479 106.26523605 180.09285205 102 174.5 C100.61452176 172.68103648 99.22910376 170.86202708 97.84375 169.04296875 C95.55760597 166.04128405 93.26676635 163.04338247 90.96875 160.05078125 C90.14562277 158.97151473 89.3226852 157.8921035 88.5 156.8125 C87.8090625 155.91144531 87.118125 155.01039063 86.40625 154.08203125 C85 152 85 152 85 150 C85.62192576 149.99945523 86.24385153 149.99891047 86.88462353 149.99834919 C102.0692802 149.98333356 117.25359218 149.94069478 132.43806744 149.86790943 C139.78141741 149.8333649 147.12458173 149.80791784 154.46801758 149.80444336 C160.87409689 149.80138869 167.27984466 149.78069831 173.68579608 149.73947543 C177.07280198 149.71827852 180.45933817 149.70547514 183.84641075 149.71384621 C187.6424972 149.71877772 191.43723423 149.69254276 195.2331543 149.65942383 C196.33655655 149.66804947 197.4399588 149.67667511 198.57679749 149.68556213 C209.15530123 149.53195571 219.53275467 146.52959452 227.28125 139.02734375 C235.70281808 129.0937214 237.13252369 118.99797574 236.3125 106.31835938 C235.15325612 97.71821882 229.99293293 89.59170204 223.1875 84.328125 C219.33162669 81.98705906 215.27143873 80.41116804 211 79 C210.01 78.67 209.02 78.34 208 78 C164.77 77.67 121.54 77.34 77 77 C77 174.68 77 272.36 77 373 C51.59 373 26.18 373 0 373 C0 249.91 0 126.82 0 0 Z " fill="#0054C3" transform="translate(306,249)"/>
<path d="M0 0 C30.9375 -0.061875 61.875 -0.12375 93.75 -0.1875 C103.50788086 -0.21481201 113.26576172 -0.24212402 123.31933594 -0.27026367 C135.26220703 -0.28381348 135.26220703 -0.28381348 140.85845947 -0.28633118 C144.75548457 -0.28911889 148.65238627 -0.30033246 152.54937744 -0.31672668 C157.53017239 -0.33740073 162.51078953 -0.34345563 167.4916234 -0.33921683 C169.31336606 -0.34010237 171.13511535 -0.34599377 172.95682096 -0.35764539 C182.74525374 -0.41731139 191.58961796 -0.07884827 201 3 C201.68787472 3.21730176 202.37574944 3.43460352 203.08446884 3.65849018 C225.82765425 11.30115615 244.1027351 27.09650901 254.90625 48.4934082 C258.71241401 56.39591521 261.08402903 64.45023705 263 73 C263.19335938 73.78503906 263.38671875 74.57007813 263.5859375 75.37890625 C267.14897261 97.9335908 260.77210521 121.34439142 248 140 C233.70537847 159.33502185 213.83626163 171.99391804 190.14672852 176.54858398 C187.09805448 176.98593353 184.24098949 177.11419887 181.1640625 177.09765625 C180.10058594 177.09443359 179.03710938 177.09121094 177.94140625 177.08789062 C176.84699219 177.07951172 175.75257813 177.07113281 174.625 177.0625 C173.50738281 177.05798828 172.38976562 177.05347656 171.23828125 177.04882812 C168.49213196 177.03709244 165.74609414 177.02067363 163 177 C163.35602295 177.48130371 163.7120459 177.96260742 164.07885742 178.45849609 C170.57922434 187.25109219 177.05864017 196.05624858 183.4375 204.9375 C188.04767637 211.35122875 192.74625157 217.69202475 197.5 224 C202.80285577 231.03661194 208.01685255 238.12831691 213.15844727 245.28344727 C217.0492519 250.69470067 220.98033192 256.07459716 224.9375 261.4375 C225.51097168 262.21504639 226.08444336 262.99259277 226.67529297 263.79370117 C229.74174714 267.94845939 232.81433062 272.0986171 235.890625 276.24609375 C236.84400757 277.53398804 236.84400757 277.53398804 237.81665039 278.84790039 C239.03265243 280.49044732 240.25048849 282.13163864 241.47045898 283.77124023 C243.69491222 286.77791879 245.83856806 289.73046951 247.76171875 292.94140625 C248.90402213 295.13951862 248.90402213 295.13951862 251.125 296.5625 C253.3985072 298.30552219 253.38907284 299.29446543 254 302 C254.99 302.66 255.98 303.32 257 304 C257.98352763 305.67199697 258.9622386 307.34754928 259.890625 309.05078125 C263.0845903 314.89134482 263.0845903 314.89134482 268 319 C268 319.99 268 320.98 268 322 C239.83270355 324.51926284 239.83270355 324.51926284 232.42041016 320.65527344 C228.52500227 317.17628141 226.25695234 312.8376777 224.0625 308.15429688 C222.43694132 304.85835712 220.268513 302.04926982 218.0625 299.125 C217.2423593 297.97792132 216.42602092 296.82811562 215.61328125 295.67578125 C206.47835448 282.80686982 197.1446208 270.08303223 187.76611328 257.39111328 C184.8404389 253.43008828 181.92055249 249.46480201 179 245.5 C177.83594298 243.92056888 176.67188048 242.3411418 175.5078125 240.76171875 C173.14656803 237.55736102 170.78741454 234.35147783 168.4296875 231.14453125 C167.24491038 229.53376685 166.06001515 227.9230893 164.875 226.3125 C164.29379395 225.52246582 163.71258789 224.73243164 163.11376953 223.91845703 C159.40040799 218.87867149 155.64752213 213.87057442 151.875 208.875 C147.22074737 202.70616409 142.74022664 196.42853497 138.30615234 190.10009766 C133.39078293 183.09744649 128.39124483 176.14123166 122.96875 169.51953125 C120.26902089 166.06452078 118.06291579 162.35991428 115.78125 158.62109375 C114.08012096 155.94099246 114.08012096 155.94099246 111.78125 153.78515625 C110 152 110 152 110 150 C110.88568161 149.99413376 111.77136322 149.98826752 112.68388367 149.98222351 C121.08292442 149.92401197 129.48170727 149.85177549 137.88049603 149.76428509 C142.19708531 149.7198003 146.51358496 149.6804978 150.83032227 149.65356445 C155.00617386 149.62731067 159.18167632 149.58675768 163.35730934 149.53681374 C164.94023058 149.52029268 166.52321199 149.50868749 168.10620689 149.50238609 C185.43094919 149.42653051 199.87619151 146.33322753 214 136 C214.928125 135.32324219 214.928125 135.32324219 215.875 134.6328125 C227.9615944 125.0822446 233.70103716 109.81946819 236 95 C237.66618322 78.62263812 232.30324956 62.61757238 222.875 49.3125 C215.75107688 40.6665052 206.30615983 35.05408183 196 31 C195.23558594 30.64808594 194.47117187 30.29617188 193.68359375 29.93359375 C185.44879727 27.06879556 176.28978517 27.82865234 167.6796875 27.79467773 C166.10677844 27.78495027 164.53387192 27.77480416 162.96096802 27.76427555 C158.76592593 27.73734213 154.57087348 27.71610465 150.37579346 27.69608307 C146.43279876 27.67639119 142.48984325 27.65151433 138.546875 27.6270752 C127.03127962 27.55869852 115.51563629 27.4986003 104 27.4375 C65.39 27.2209375 65.39 27.2209375 26 27 C26 124.35 26 221.7 26 322 C17.42 322 8.84 322 0 322 C0 215.74 0 109.48 0 0 Z " fill="#0C121A" transform="translate(332,274)"/>
<path d="M0 0 C0.33 0.66 0.66 1.32 1 2 C-0.93254772 4.0245738 -2.63158688 5.42105792 -5 7 C-5 8.32 -5 9.64 -5 11 C-4.05125 11.226875 -3.1025 11.45375 -2.125 11.6875 C1 13 1 13 2.375 15.625 C2.58125 16.40875 2.7875 17.1925 3 18 C4.32 18 5.64 18 7 18 C7 18.66 7 19.32 7 20 C8.98 19.505 8.98 19.505 11 19 C11.99 20.98 11.99 20.98 13 23 C1.55045859 31.16841031 -10.2983875 35.13789206 -24.38232422 35.11352539 C-25.45165443 35.11374443 -25.45165443 35.11374443 -26.54258728 35.1139679 C-28.87998585 35.11327572 -31.21730299 35.10551612 -33.5546875 35.09765625 C-35.18278968 35.0957896 -36.81089242 35.09436686 -38.43899536 35.09336853 C-42.71001759 35.08956282 -46.98100545 35.07974926 -51.25201416 35.06866455 C-55.61592138 35.05840848 -59.97983419 35.05386194 -64.34375 35.04882812 C-72.89584905 35.03812515 -81.44792024 35.02107224 -90 35 C-89.30132812 35.86882812 -88.60265625 36.73765625 -87.8828125 37.6328125 C-86.96310208 38.79652772 -86.04385573 39.96060981 -85.125 41.125 C-84.66480469 41.69476563 -84.20460938 42.26453125 -83.73046875 42.8515625 C-80.88584538 46.47948796 -79.4538243 49.58613704 -78 54 C-77.01 54.33 -76.02 54.66 -75 55 C-73.74609375 56.609375 -73.74609375 56.609375 -72.4375 58.75 C-69.84229173 62.8106617 -67.02747917 66.64246009 -64.0625 70.4375 C-61.20475744 74.10941273 -58.39158585 77.79302862 -55.75 81.625 C-48.61131603 91.97778338 -41.01107556 102.02506252 -33.4375 112.0625 C-29.28030655 117.58245668 -25.25226136 123.19091954 -21.22070312 128.80273438 C-17.03340176 134.61279613 -12.75275351 140.34703461 -8.4375 146.0625 C-3.27513625 152.90350454 1.74582558 159.82177 6.65258789 166.84790039 C10.48262514 172.31524477 14.39541812 177.71919697 18.546875 182.94848633 C21.26544997 186.42236513 23.42706611 189.72581853 25.26171875 193.74609375 C27.75941088 198.79597878 29.98129023 203.12749331 35 206 C45.76109112 208.38762147 57.0696842 207.68525974 68 207 C68 206.01 68 205.02 68 204 C67.4225 203.79375 66.845 203.5875 66.25 203.375 C62.10806333 200.84381648 60.21791161 196.4032972 57.9375 192.25 C56.21699267 188.83364055 56.21699267 188.83364055 53 187 C52.566875 185.8553125 52.566875 185.8553125 52.125 184.6875 C51.13940587 181.85211255 51.13940587 181.85211255 48.73828125 179.75390625 C45.78099191 176.77974222 43.45192526 173.6791203 41.0625 170.25 C40.6308252 169.63817871 40.19915039 169.02635742 39.75439453 168.39599609 C36.42037071 163.65252711 33.16262448 158.8596425 30 154 C30.32742188 153.39671875 30.65484375 152.7934375 30.9921875 152.171875 C32.17423027 149.62452701 32.15421553 147.77587962 32 145 C32.66 145 33.32 145 34 145 C34 144.34 34 143.68 34 143 C35.216875 143.061875 36.43375 143.12375 37.6875 143.1875 C41.5985386 143.18057781 43.90672835 142.54740018 47 140 C47.70529555 138.68669105 48.37850227 137.35497704 49 136 C49.37809814 136.52432617 49.75619629 137.04865234 50.14575195 137.58886719 C51.86761352 139.97619142 53.59005109 142.3630995 55.3125 144.75 C55.90740234 145.575 56.50230469 146.4 57.11523438 147.25 C57.69208984 148.04921875 58.26894531 148.8484375 58.86328125 149.671875 C59.39219971 150.4050293 59.92111816 151.13818359 60.46606445 151.89355469 C61.51382405 153.33236892 62.59225904 154.74921153 63.69604492 156.14550781 C65 158 65 158 65 160 C65.66 160 66.32 160 67 160 C68.3671875 161.9765625 68.3671875 161.9765625 69.875 164.625 C70.40480469 165.53507813 70.93460938 166.44515625 71.48046875 167.3828125 C71.98191406 168.24648438 72.48335937 169.11015625 73 170 C75.05311785 173.36956883 76.63834119 175.75889413 80 178 C81.3515625 180.0234375 81.3515625 180.0234375 82.625 182.375 C83.05039062 183.14585937 83.47578125 183.91671875 83.9140625 184.7109375 C85 187 85 187 85.3984375 189.1640625 C85.59695313 189.76992188 85.79546875 190.37578125 86 191 C86.5775 191.27328125 87.155 191.5465625 87.75 191.828125 C91.16217898 193.60530155 92.88331901 196.64553455 95 199.75 C95.63808594 200.66265625 95.63808594 200.66265625 96.2890625 201.59375 C98.24982249 204.40858336 100.1659883 207.24945311 102.06640625 210.10546875 C107.87352414 219.00256298 107.87352414 219.00256298 114.875 226.9375 C116.92642203 228.92858609 117.81802568 230.44970405 119 233 C106.5786026 233.41850508 94.15890071 233.73758465 81.7318697 233.93261909 C75.95989519 234.02627226 70.19276778 234.15306886 64.42358398 234.35791016 C58.84693246 234.55465811 53.27491456 234.6613337 47.69505882 234.70779037 C45.57546181 234.74085371 43.45609733 234.80543661 41.33849525 234.90314102 C25.2304369 235.61625223 25.2304369 235.61625223 19.8765831 231.28029633 C15.99467411 227.04839359 13.12221774 222.33284759 10.3553524 217.32453537 C8.15979367 213.55898042 5.49007515 210.1805536 2.8125 206.75 C-1.3121598 201.29751111 -5.33407325 195.78202738 -9.29077148 190.20678711 C-15.23794484 181.83253367 -21.35349221 173.58091881 -27.45703125 165.3203125 C-32.72736787 158.18420502 -37.9949414 151.05038671 -43.125 143.8125 C-47.07769519 138.23953045 -51.14961103 132.76441444 -55.26049805 127.30737305 C-66.02731146 113.00793898 -76.53926028 98.52406359 -87 84 C-93.0948149 75.54413068 -99.32853336 67.19789226 -105.59521484 58.86914062 C-107.4853826 56.35417289 -109.36696673 53.83281222 -111.25 51.3125 C-115.46897419 45.68463479 -119.73476395 40.09285205 -124 34.5 C-125.38547824 32.68103648 -126.77089624 30.86202708 -128.15625 29.04296875 C-130.44239403 26.04128405 -132.73323365 23.04338247 -135.03125 20.05078125 C-135.85437723 18.97151473 -136.6773148 17.8921035 -137.5 16.8125 C-138.53640625 15.46091797 -138.53640625 15.46091797 -139.59375 14.08203125 C-141 12 -141 12 -141 10 C-140.37807424 9.99945523 -139.75614847 9.99891047 -139.11537647 9.99834919 C-123.9307198 9.98333356 -108.74640782 9.94069478 -93.56193256 9.86790943 C-86.21858259 9.8333649 -78.87541827 9.80791784 -71.53198242 9.80444336 C-65.12590311 9.80138869 -58.72015534 9.78069831 -52.31420392 9.73947543 C-48.92719802 9.71827852 -45.54066183 9.70547514 -42.15358925 9.71384621 C-38.3575028 9.71877772 -34.56276577 9.69254276 -30.7668457 9.65942383 C-29.66344345 9.66804947 -28.5600412 9.67667511 -27.42320251 9.68556213 C-17.12623235 9.53604376 -7.88377063 6.79483023 0 0 Z " fill="#014FB6" transform="translate(532,389)"/>
<path d="M0 0 C9.57973411 -0.10413854 19.15883034 -0.15232237 28.73909569 -0.16952705 C35.44920087 -0.18162696 42.15878884 -0.213417 48.86873531 -0.26070881 C53.25389754 -0.28706173 57.63896794 -0.29524425 62.02420235 -0.29881859 C64.08705916 -0.30361813 66.14991381 -0.31503585 68.21269035 -0.33385658 C97.52923444 -0.58525403 126.39157151 6.26890352 148.83642578 26.11962891 C149.67818359 26.84150391 150.51994141 27.56337891 151.38720703 28.30712891 C159.3308197 35.25025622 165.99883097 42.54896171 171.77392578 51.36962891 C172.35895874 52.25557739 172.35895874 52.25557739 172.95581055 53.15942383 C175.04327181 56.44809414 176.37659577 59.23661996 176.83642578 63.11962891 C177.49642578 63.11962891 178.15642578 63.11962891 178.83642578 63.11962891 C179.5139946 64.67743223 180.17802035 66.24112987 180.83642578 67.80712891 C181.20767578 68.67724609 181.57892578 69.54736328 181.96142578 70.44384766 C182.85513066 73.17682911 183.00092254 75.26663825 182.83642578 78.11962891 C183.49642578 78.11962891 184.15642578 78.11962891 184.83642578 78.11962891 C184.95759766 78.92787109 185.07876953 79.73611328 185.20361328 80.56884766 C185.37119141 81.63748047 185.53876953 82.70611328 185.71142578 83.80712891 C185.87384766 84.86287109 186.03626953 85.91861328 186.20361328 87.00634766 C186.69771119 90.03898257 186.69771119 90.03898257 187.85717773 92.35180664 C189.75215387 97.70791346 189.16833157 103.5685327 189.15209961 109.19921875 C189.14898313 111.45314942 189.17226107 113.70570826 189.19775391 115.95947266 C189.33292235 146.68959568 176.87711238 174.00579775 155.58642578 195.80712891 C146.90017292 204.39105513 137.3052279 211.09469782 126.46142578 216.68212891 C125.81971436 217.01704346 125.17800293 217.35195801 124.5168457 217.69702148 C119.93848195 219.93981101 115.91717799 220.70843721 110.83642578 221.11962891 C113.34029331 226.92404908 116.59427352 231.60481957 120.49804688 236.56787109 C126.22834426 243.85350556 131.68420757 251.33814927 137.14990234 258.82324219 C138.73680344 260.98398216 140.3420388 263.12960593 141.95361328 265.27197266 C142.87322962 266.51260204 143.79252247 267.75347131 144.71142578 268.99462891 C145.13423828 269.54691162 145.55705078 270.09919434 145.99267578 270.66821289 C148.3788278 273.92735973 149.32970497 276.06876041 148.83642578 280.11962891 C147.90830078 280.55275391 147.90830078 280.55275391 146.96142578 280.99462891 C144.70316813 282.05682932 144.70316813 282.05682932 142.83642578 284.11962891 C137.50309245 284.45296224 137.50309245 284.45296224 134.83642578 283.11962891 C134.83642578 283.77962891 134.83642578 284.43962891 134.83642578 285.11962891 C134.17642578 285.11962891 133.51642578 285.11962891 132.83642578 285.11962891 C133.17673828 286.51181641 133.17673828 286.51181641 133.52392578 287.93212891 C133.62705078 288.98400391 133.73017578 290.03587891 133.83642578 291.11962891 C132.35595703 292.81884766 132.35595703 292.81884766 130.83642578 294.11962891 C125.25710567 287.41096001 120.12151133 280.43387931 115.03662109 273.34838867 C111.0286078 267.76449223 106.98145789 262.21177182 102.89892578 256.68212891 C102.31804199 255.89523682 101.7371582 255.10834473 101.13867188 254.29760742 C99.96018776 252.70181814 98.78147664 251.10619649 97.60253906 249.51074219 C95.25966601 246.33876283 92.92055957 243.16401715 90.58178711 239.98901367 C89.42431543 238.41770822 88.26660313 236.84657998 87.10864258 235.27563477 C84.06415365 231.14526812 81.02256021 227.01280638 77.98486328 222.87744141 C77.35322266 222.01828125 76.72158203 221.15912109 76.07080078 220.27392578 C74.86422161 218.63262323 73.65844428 216.99073079 72.45361328 215.34814453 C70.17013524 212.24336838 67.8880684 209.18237385 65.43798828 206.20556641 C63.83642578 204.11962891 63.83642578 204.11962891 63.83642578 202.11962891 C64.47966797 202.1102832 65.12291016 202.1009375 65.78564453 202.09130859 C83.84766867 201.76279104 99.33001289 200.00397696 115.83642578 192.11962891 C116.75939453 191.67876953 117.68236328 191.23791016 118.63330078 190.78369141 C139.14771205 180.29468451 152.68332335 161.77754051 159.95703125 140.29223633 C167.0947676 118.04033067 164.970735 95.06979445 154.83642578 74.11962891 C154.39556641 73.19794922 153.95470703 72.27626953 153.50048828 71.32666016 C142.8038996 50.37671162 124.28215046 36.76021973 102.43408203 29.26806641 C91.52144626 25.78455401 80.85304618 24.9784279 69.44165039 24.91430664 C68.33818268 24.90440704 67.23471497 24.89450745 66.09780884 24.88430786 C62.47815032 24.85291276 58.85847872 24.828023 55.23876953 24.80322266 C52.71814142 24.78263411 50.1975166 24.76163716 47.67689514 24.74024963 C41.73796017 24.69083855 35.79900304 24.64552303 29.86002117 24.60222727 C23.09328461 24.55266589 16.32659403 24.49781851 9.55990207 24.44254768 C-4.34788035 24.32906527 -18.25570701 24.22215416 -32.16357422 24.11962891 C-32.3914388 22.13395182 -32.61930339 20.14827474 -32.84716797 18.16259766 C-33.13528157 15.92566498 -33.13528157 15.92566498 -34.16357422 13.11962891 C-35.15357422 13.11962891 -36.14357422 13.11962891 -37.16357422 13.11962891 C-37.49357422 13.77962891 -37.82357422 14.43962891 -38.16357422 15.11962891 C-41.09236793 14.49203025 -43.52453051 13.53340232 -46.16357422 12.11962891 C-44.10309393 7.81415381 -41.99454622 4.07560209 -38.16357422 1.11962891 C-34.58852306 0.0688216 -31.11621145 0.15818305 -27.40966797 0.20166016 C-26.26171249 0.18730423 -25.11375702 0.1729483 -23.93101501 0.15815735 C-21.24171257 0.13016414 -18.55555502 0.11631116 -15.86639404 0.12115479 C-10.57701235 0.12740234 -5.28895028 0.06173723 0 0 Z " fill="#015AD0" transform="translate(431.16357421875,248.88037109375)"/>
<path d="M0 0 C38.71778154 -0.08060607 38.71778154 -0.08060607 54.96484375 -0.09765625 C66.1749861 -0.10951512 77.38509835 -0.12344278 88.59521484 -0.15087891 C96.76013482 -0.17085251 104.92503032 -0.18372585 113.08997405 -0.18817699 C117.41072534 -0.19077765 121.73140666 -0.19686323 126.05213547 -0.21146011 C130.1248822 -0.22510683 134.19753058 -0.2292084 138.270298 -0.22621536 C139.75933111 -0.22676237 141.24836775 -0.23069739 142.73738098 -0.23841095 C159.54225438 -0.32114319 173.29949686 2.81385438 187 13 C188.5159375 14.0828125 188.5159375 14.0828125 190.0625 15.1875 C202.52694879 25.99002228 208.35867121 42.3556893 210.421875 58.25 C211.24057496 76.07946577 203.94568823 92.96959867 192.24609375 106.00390625 C189.90817185 108.08160728 187.95500357 109.03923434 185 110 C184.34 109.34 183.68 108.68 183 108 C182.01 108 181.02 108 180 108 C180 107.34 180 106.68 180 106 C178.68 106 177.36 106 176 106 C174.9935725 104.33720673 173.99414593 102.67016516 173 101 C171.33607955 100.32650839 169.66967972 99.6590841 168 99 C167.1875 96.875 167.1875 96.875 167 95 C170.75 92 170.75 92 173 92 C173.3403125 90.7315625 173.3403125 90.7315625 173.6875 89.4375 C174.79009034 86.54976339 175.61345878 85.03897482 177.4375 82.6875 C183.91514051 73.79511776 184.6321586 62.67145059 183 52 C180.64805263 43.46062185 175.64022863 35.63871024 168 31 C164.73302554 29.4248516 161.44183487 28.13708932 158 27 C157.01 26.67 156.02 26.34 155 26 C153.22413288 25.89803353 151.444722 25.8536967 149.66596985 25.84178162 C148.55959167 25.8319928 147.4532135 25.82220398 146.31330872 25.81211853 C145.0991478 25.80636307 143.88498688 25.8006076 142.6340332 25.79467773 C141.35587738 25.78477814 140.07772156 25.77487854 138.76083374 25.76467896 C135.25494487 25.7376358 131.74904255 25.71662306 128.24310708 25.69667697 C124.57954216 25.67481379 120.91601867 25.64742672 117.25248718 25.62062073 C110.31462177 25.57069834 103.37673335 25.52575783 96.43882293 25.48259836 C88.54044826 25.43322211 80.64211518 25.37830542 72.74378073 25.32291877 C56.49589215 25.20910569 40.24796545 25.10226518 24 25 C24.00785522 26.83606812 24.00785522 26.83606812 24.01586914 28.70922852 C24.03419415 33.32201382 24.04553079 37.93479602 24.05493164 42.54760742 C24.05990981 44.53068587 24.06669476 46.51376075 24.07543945 48.49682617 C24.12099307 59.1054606 24.06154209 69.6356281 23.21655273 80.21459961 C22.96124413 83.03286143 22.96124413 83.03286143 23 86 C22.67 86.99 22.34 87.98 22 89 C21.34 89 20.68 89 20 89 C19.67 88.01 19.34 87.02 19 86 C18.236875 86.020625 17.47375 86.04125 16.6875 86.0625 C14 86 14 86 11 85 C11 85.66 11 86.32 11 87 C9.02 87.495 9.02 87.495 7 88 C7.53625 87.443125 8.0725 86.88625 8.625 86.3125 C9.07875 85.549375 9.5325 84.78625 10 84 C9.39351421 82.31050386 8.72159424 80.64363134 8 79 C8.375 76.1875 8.375 76.1875 9 74 C6.03 73.34 3.06 72.68 0 72 C0 48.24 0 24.48 0 0 Z " fill="#0061E5" transform="translate(359,301)"/>
<path d="M0 0 C0.33 0.66 0.66 1.32 1 2 C-0.93254772 4.0245738 -2.63158688 5.42105792 -5 7 C-5 8.32 -5 9.64 -5 11 C-4.05125 11.226875 -3.1025 11.45375 -2.125 11.6875 C1 13 1 13 2.375 15.625 C2.58125 16.40875 2.7875 17.1925 3 18 C4.32 18 5.64 18 7 18 C7 18.66 7 19.32 7 20 C8.98 19.505 8.98 19.505 11 19 C11.99 20.98 11.99 20.98 13 23 C1.55045859 31.16841031 -10.2983875 35.13789206 -24.38232422 35.11352539 C-25.45165443 35.11374443 -25.45165443 35.11374443 -26.54258728 35.1139679 C-28.87998585 35.11327572 -31.21730299 35.10551612 -33.5546875 35.09765625 C-35.18278968 35.0957896 -36.81089242 35.09436686 -38.43899536 35.09336853 C-42.71001759 35.08956282 -46.98100545 35.07974926 -51.25201416 35.06866455 C-55.61592138 35.05840848 -59.97983419 35.05386194 -64.34375 35.04882812 C-72.89584905 35.03812515 -81.44792024 35.02107224 -90 35 C-89.30132812 35.86882812 -88.60265625 36.73765625 -87.8828125 37.6328125 C-86.96310208 38.79652772 -86.04385573 39.96060981 -85.125 41.125 C-84.66480469 41.69476563 -84.20460938 42.26453125 -83.73046875 42.8515625 C-80.88584538 46.47948796 -79.4538243 49.58613704 -78 54 C-77.01 54.33 -76.02 54.66 -75 55 C-73.74609375 56.609375 -73.74609375 56.609375 -72.4375 58.75 C-69.84230076 62.81064757 -67.02763984 66.64258848 -64.0625 70.4375 C-60.49898309 75.01283894 -57.09481575 79.65582378 -53.8046875 84.43359375 C-50.32664548 89.37964051 -46.65137001 94.18118515 -43 99 C-44.26779557 101.53559113 -45.91062614 103.10056922 -48 105 C-48.66 105 -49.32 105 -50 105 C-50 105.66 -50 106.32 -50 107 C-48.68 107 -47.36 107 -46 107 C-46 107.99 -46 108.98 -46 110 C-50.46236469 111.80619523 -53.31034294 112.11658501 -58 111 C-58.66 113.97 -59.32 116.94 -60 120 C-63.2796645 116.92113129 -65.87748439 113.55128317 -68.4375 109.875 C-69.31844653 108.6259042 -70.19998763 107.37722759 -71.08203125 106.12890625 C-71.78513428 105.13141357 -71.78513428 105.13141357 -72.50244141 104.11376953 C-75.18438536 100.3282673 -77.905841 96.57131429 -80.625 92.8125 C-81.18429199 92.0390625 -81.74358398 91.265625 -82.31982422 90.46875 C-83.39934725 88.97623367 -84.47909017 87.48387634 -85.55908203 85.99169922 C-86.76869135 84.31972483 -87.9763712 82.64635478 -89.18359375 80.97265625 C-94.56256766 73.53602912 -100.07725544 66.20280095 -105.59521484 58.86914062 C-107.4853826 56.35417289 -109.36696673 53.83281222 -111.25 51.3125 C-115.46897419 45.68463479 -119.73476395 40.09285205 -124 34.5 C-125.38547824 32.68103648 -126.77089624 30.86202708 -128.15625 29.04296875 C-130.44239403 26.04128405 -132.73323365 23.04338247 -135.03125 20.05078125 C-135.85437723 18.97151473 -136.6773148 17.8921035 -137.5 16.8125 C-138.53640625 15.46091797 -138.53640625 15.46091797 -139.59375 14.08203125 C-141 12 -141 12 -141 10 C-140.37807424 9.99945523 -139.75614847 9.99891047 -139.11537647 9.99834919 C-123.9307198 9.98333356 -108.74640782 9.94069478 -93.56193256 9.86790943 C-86.21858259 9.8333649 -78.87541827 9.80791784 -71.53198242 9.80444336 C-65.12590311 9.80138869 -58.72015534 9.78069831 -52.31420392 9.73947543 C-48.92719802 9.71827852 -45.54066183 9.70547514 -42.15358925 9.71384621 C-38.3575028 9.71877772 -34.56276577 9.69254276 -30.7668457 9.65942383 C-29.66344345 9.66804947 -28.5600412 9.67667511 -27.42320251 9.68556213 C-17.12623235 9.53604376 -7.88377063 6.79483023 0 0 Z " fill="#013576" transform="translate(532,389)"/>
<path d="M0 0 C9.57973411 -0.10413854 19.15883034 -0.15232237 28.73909569 -0.16952705 C35.44920087 -0.18162696 42.15878884 -0.213417 48.86873531 -0.26070881 C53.25389754 -0.28706173 57.63896794 -0.29524425 62.02420235 -0.29881859 C64.08705916 -0.30361813 66.14991381 -0.31503585 68.21269035 -0.33385658 C97.49725582 -0.58497981 126.43174931 6.24992415 148.83642578 26.11962891 C149.72458984 26.89951172 150.61275391 27.67939453 151.52783203 28.48291016 C153.98831905 30.67120356 156.42922035 32.87290384 158.83642578 35.11962891 C159.93083984 36.12509766 159.93083984 36.12509766 161.04736328 37.15087891 C163.50415639 39.85442417 164.02659361 42.61035614 164.83642578 46.11962891 C163.84642578 46.44962891 162.85642578 46.77962891 161.83642578 47.11962891 C161.83642578 47.77962891 161.83642578 48.43962891 161.83642578 49.11962891 C160.62986328 49.52181641 160.62986328 49.52181641 159.39892578 49.93212891 C158.55330078 50.32400391 157.70767578 50.71587891 156.83642578 51.11962891 C156.50642578 52.10962891 156.17642578 53.09962891 155.83642578 54.11962891 C154.12939453 55.06884766 154.12939453 55.06884766 152.02392578 55.80712891 C151.33685547 56.05849609 150.64978516 56.30986328 149.94189453 56.56884766 C147.83642578 57.11962891 147.83642578 57.11962891 143.83642578 57.11962891 C142.26611328 55.65087891 142.26611328 55.65087891 140.71142578 53.61962891 C126.78755261 36.85776885 104.71023524 27.62772201 83.39871407 25.33131599 C78.75077502 24.9473199 74.10313566 24.94049978 69.44165039 24.91430664 C68.33818268 24.90440704 67.23471497 24.89450745 66.09780884 24.88430786 C62.47815032 24.85291276 58.85847872 24.828023 55.23876953 24.80322266 C52.71814142 24.78263411 50.1975166 24.76163716 47.67689514 24.74024963 C41.73796017 24.69083855 35.79900304 24.64552303 29.86002117 24.60222727 C23.09328461 24.55266589 16.32659403 24.49781851 9.55990207 24.44254768 C-4.34788035 24.32906527 -18.25570701 24.22215416 -32.16357422 24.11962891 C-32.3914388 22.13395182 -32.61930339 20.14827474 -32.84716797 18.16259766 C-33.13528157 15.92566498 -33.13528157 15.92566498 -34.16357422 13.11962891 C-35.15357422 13.11962891 -36.14357422 13.11962891 -37.16357422 13.11962891 C-37.49357422 13.77962891 -37.82357422 14.43962891 -38.16357422 15.11962891 C-41.09236793 14.49203025 -43.52453051 13.53340232 -46.16357422 12.11962891 C-44.10309393 7.81415381 -41.99454622 4.07560209 -38.16357422 1.11962891 C-34.58852306 0.0688216 -31.11621145 0.15818305 -27.40966797 0.20166016 C-26.26171249 0.18730423 -25.11375702 0.1729483 -23.93101501 0.15815735 C-21.24171257 0.13016414 -18.55555502 0.11631116 -15.86639404 0.12115479 C-10.57701235 0.12740234 -5.28895028 0.06173723 0 0 Z " fill="#0066F3" transform="translate(431.16357421875,248.88037109375)"/>
<path d="M0 0 C37.62 0 75.24 0 114 0 C114 0.33 114 0.66 114 1 C112.79670044 1.01401855 112.79670044 1.01401855 111.5690918 1.02832031 C107.94126361 1.08193742 104.31473708 1.16560298 100.6875 1.25 C99.42486328 1.26417969 98.16222656 1.27835938 96.86132812 1.29296875 C95.04858398 1.34130859 95.04858398 1.34130859 93.19921875 1.390625 C91.52605591 1.4220459 91.52605591 1.4220459 89.8190918 1.45410156 C86.87215576 1.72337734 86.87215576 1.72337734 85.23754883 4.03808594 C84.82915771 4.68551758 84.4207666 5.33294922 84 6 C83.34 6 82.68 6 82 6 C81.34 7.65 80.68 9.3 80 11 C83.06392638 13.25288704 84.33544288 14.09121372 88.1875 13.5625 C89.115625 13.376875 90.04375 13.19125 91 13 C93 15 93 15 93 24 C130.29 24 167.58 24 206 24 C206 24.33 206 24.66 206 25 C146.6 25 87.2 25 26 25 C26 131.26 26 237.52 26 347 C25.67 347 25.34 347 25 347 C25 248.33 25 149.66 25 48 C24.01 48.495 24.01 48.495 23 49 C23.05220703 50.03060547 23.05220703 50.03060547 23.10546875 51.08203125 C23.13253906 51.98308594 23.15960938 52.88414062 23.1875 53.8125 C23.23970703 55.15248047 23.23970703 55.15248047 23.29296875 56.51953125 C22.94510607 59.46476862 22.19464994 60.11967333 20 62 C19.28639786 64.22252318 19.28639786 64.22252318 19 67 C18.87367188 67.7321875 18.74734375 68.464375 18.6171875 69.21875 C18.49601562 70.0128125 18.37484375 70.806875 18.25 71.625 C18.13140625 72.38039063 18.0128125 73.13578125 17.890625 73.9140625 C17.78640203 76.11049936 17.78640203 76.11049936 19.484375 77.6484375 C20.23460937 78.31746094 20.23460937 78.31746094 21 79 C21 79.66 21 80.32 21 81 C18.03 81.495 18.03 81.495 15 82 C14.67 81.01 14.34 80.02 14 79 C13.34 79 12.68 79 12 79 C12 80.32 12 81.64 12 83 C6.555 83.495 6.555 83.495 1 84 C1.00515373 85.17500942 1.01030746 86.35001884 1.01561737 87.56063461 C1.13848606 115.57996671 1.26071654 143.59930154 1.38218227 171.61863975 C1.39719893 175.08251116 1.41222088 178.54638254 1.42724609 182.01025391 C1.43023671 182.69972246 1.43322732 183.38919101 1.43630856 184.09955254 C1.48446928 195.19983044 1.53305583 206.30010644 1.58180541 217.40038177 C1.63197939 228.82720043 1.68167369 240.25402109 1.73096704 251.68084359 C1.75860184 258.08353327 1.78644151 264.48622189 1.81480408 270.88890839 C2.04474152 322.85604745 2.04474152 322.85604745 2 345 C2.99 345.33 3.98 345.66 5 346 C7.2807688 344.79377981 7.2807688 344.79377981 9.5625 343.0625 C13.81093394 340 13.81093394 340 16 340 C16.2165625 339.13375 16.2165625 339.13375 16.4375 338.25 C16.95833333 336.16666667 17.47916667 334.08333333 18 332 C17.34 332 16.68 332 16 332 C16.375 330.0625 16.375 330.0625 17 328 C17.66 327.67 18.32 327.34 19 327 C19 329 19 331 19 333 C19.99 332.67 20.98 332.34 22 332 C22.125 339.75 22.125 339.75 21 342 C20.01 342.33 19.02 342.66 18 343 C18.28427417 344.58467728 18.57774818 346.1677057 18.875 347.75 C19.11863281 349.07257813 19.11863281 349.07257813 19.3671875 350.421875 C19.88634825 353.00551023 19.88634825 353.00551023 21.16015625 355.14453125 C21.57587891 356.06298828 21.57587891 356.06298828 22 357 C21.01712992 359.00847365 20.01622658 361.00819591 19 363 C19.20435808 365.78647557 19.20435808 365.78647557 20 368 C19.01 368.33 18.02 368.66 17 369 C17 368.34 17 367.68 17 367 C15.35 367.66 13.7 368.32 12 369 C12 369.66 12 370.32 12 371 C31.305 371.495 31.305 371.495 51 372 C51 372.33 51 372.66 51 373 C34.17 373 17.34 373 0 373 C0 249.91 0 126.82 0 0 Z " fill="#013578" transform="translate(306,249)"/>
<path d="M0 0 C0.33 0 0.66 0 1 0 C1 23.76 1 47.52 1 72 C3.97 72.33 6.94 72.66 10 73 C11.231394 76.69418201 10.64432764 79.2056261 10 83 C10.66 83.33 11.32 83.66 12 84 C11.34 84.99 10.68 85.98 10 87 C10.66 87 11.32 87 12 87 C12 86.34 12 85.68 12 85 C13.485 84.505 13.485 84.505 15 84 C15 84.66 15 85.32 15 86 C17.475 85.505 17.475 85.505 20 85 C20.33 86.32 20.66 87.64 21 89 C21.66 89 22.32 89 23 89 C22.67 87.02 22.34 85.04 22 83 C22.66 83 23.32 83 24 83 C24 78.05 24 73.1 24 68 C24.33 68 24.66 68 25 68 C25 127.4 25 186.8 25 248 C24.67 248 24.34 248 24 248 C23.67 244.04 23.34 240.08 23 236 C21.02 237.98 21.02 237.98 19 240 C18.34 240 17.68 240 17 240 C15.66666667 236.66666667 14.33333333 233.33333333 13 230 C13.66 230 14.32 230 15 230 C14.67 228.68 14.34 227.36 14 226 C13.55269531 226.37253906 13.10539062 226.74507812 12.64453125 227.12890625 C12.03996094 227.60199219 11.43539063 228.07507813 10.8125 228.5625 C10.22082031 229.03816406 9.62914062 229.51382813 9.01953125 230.00390625 C7 231 7 231 2 230 C1.67 251.45 1.34 272.9 1 295 C0.67 295 0.34 295 0 295 C0 197.65 0 100.3 0 0 Z " fill="#013D88" transform="translate(358,301)"/>
<path d="M0 0 C0.99 0.99 1.98 1.98 3 3 C2.34 3.99 1.68 4.98 1 6 C1.41156563 8.3250709 1.41156563 8.3250709 2.375 10.6875 C2.81972656 11.89986328 2.81972656 11.89986328 3.2734375 13.13671875 C3.51320313 13.75160156 3.75296875 14.36648438 4 15 C5.4540625 13.7625 5.4540625 13.7625 6.9375 12.5 C10 10 10 10 11 10 C11.97118641 20.09322214 12.13252868 30.11195502 12.09765625 40.23828125 C12.09578606 41.85637874 12.094365 43.47447681 12.09336853 45.09257507 C12.08959062 49.30595525 12.079802 53.51929973 12.06866455 57.73266602 C12.05834753 62.05028806 12.05384909 66.367916 12.04882812 70.68554688 C12.0381744 79.12371411 12.02115642 87.56185259 12 96 C7.86719131 96.01467877 3.73438946 96.02345904 -0.3984375 96.03125 C-1.55786865 96.03543945 -2.7172998 96.03962891 -3.91186523 96.04394531 C-12.64961656 96.05627371 -21.2936608 95.73648791 -30 95 C-30.13019531 94.06285156 -30.26039063 93.12570312 -30.39453125 92.16015625 C-30.80128105 88.94564197 -30.80128105 88.94564197 -32.6875 86.4375 C-34 84 -34 84 -33.25 81.5 C-32.8375 80.675 -32.425 79.85 -32 79 C-31.64386903 77.33805547 -31.30791692 75.671549 -31 74 C-30.67 73.01 -30.34 72.02 -30 71 C-21.585 70.505 -21.585 70.505 -13 70 C-12.97494385 68.1020166 -12.9498877 66.2040332 -12.92407227 64.24853516 C-12.84026375 57.9859913 -12.75199413 51.72352284 -12.66066074 45.46108437 C-12.60543556 41.66321358 -12.55201622 37.8653351 -12.50268555 34.06738281 C-12.45503599 30.40392633 -12.402693 26.74056454 -12.34705925 23.07722092 C-12.32663837 21.67777227 -12.30792483 20.27829765 -12.29092598 18.87880325 C-12.26687639 16.92255986 -12.23625878 14.96640051 -12.20532227 13.01025391 C-12.18977798 11.8955069 -12.1742337 10.78075989 -12.15821838 9.63223267 C-12 7 -12 7 -11 5 C-9.906875 4.87625 -8.81375 4.7525 -7.6875 4.625 C-3.64894224 3.94049868 -2.51290509 3.11600231 0 0 Z " fill="#0062E1" transform="translate(371,526)"/>
<path d="M0 0 C1.27459328 -0.00021904 1.27459328 -0.00021904 2.57493591 -0.0004425 C5.35597373 0.00024867 8.13694278 0.00800347 10.91796875 0.01586914 C12.85709598 0.01773615 14.79622369 0.01915872 16.73535156 0.02015686 C21.81847454 0.02395975 26.90156857 0.03377085 31.98468018 0.04486084 C37.17988697 0.05512303 42.37509848 0.05966475 47.5703125 0.06469727 C57.74871058 0.07539526 67.92708725 0.09244471 78.10546875 0.11352539 C78.10546875 0.44352539 78.10546875 0.77352539 78.10546875 1.11352539 C76.90216919 1.12754395 76.90216919 1.12754395 75.67456055 1.1418457 C72.04673236 1.19546281 68.42020583 1.27912837 64.79296875 1.36352539 C63.53033203 1.37770508 62.26769531 1.39188477 60.96679688 1.40649414 C59.15405273 1.45483398 59.15405273 1.45483398 57.3046875 1.50415039 C55.63152466 1.53557129 55.63152466 1.53557129 53.92456055 1.56762695 C50.97762451 1.83690273 50.97762451 1.83690273 49.34301758 4.15161133 C48.93462646 4.79904297 48.52623535 5.44647461 48.10546875 6.11352539 C47.44546875 6.11352539 46.78546875 6.11352539 46.10546875 6.11352539 C45.44546875 7.76352539 44.78546875 9.41352539 44.10546875 11.11352539 C47.16939513 13.36641244 48.44091163 14.20473911 52.29296875 13.67602539 C53.22109375 13.49040039 54.14921875 13.30477539 55.10546875 13.11352539 C57.10546875 15.11352539 57.10546875 15.11352539 57.10546875 24.11352539 C94.39546875 24.11352539 131.68546875 24.11352539 170.10546875 24.11352539 C170.10546875 24.44352539 170.10546875 24.77352539 170.10546875 25.11352539 C150.56346407 25.13696183 131.02146227 25.15455709 111.47944641 25.16533756 C102.40426156 25.1704778 93.32908547 25.17747683 84.25390625 25.18896484 C76.33723539 25.19898149 68.42057088 25.20539532 60.50389385 25.20761389 C56.3182312 25.20890921 52.13258672 25.21191954 47.94692993 25.21925545 C43.99401698 25.22612623 40.04112941 25.22812027 36.08821106 25.22663307 C34.65007895 25.2269045 33.21194585 25.2288432 31.77381897 25.23273087 C21.84187873 25.25822521 12.00545039 24.83531625 2.10546875 24.11352539 C2.10546875 22.79352539 2.10546875 21.47352539 2.10546875 20.11352539 C-0.86453125 20.77352539 -3.83453125 21.43352539 -6.89453125 22.11352539 C-7.22453125 21.45352539 -7.55453125 20.79352539 -7.89453125 20.11352539 C-12.71895309 21.38299054 -12.71895309 21.38299054 -15.89453125 25.11352539 C-17.16153854 19.46958384 -16.84969355 16.1373013 -13.89453125 11.11352539 C-11.26953125 9.86352539 -11.26953125 9.86352539 -8.89453125 9.11352539 C-8.56453125 8.12352539 -8.23453125 7.13352539 -7.89453125 6.11352539 C-8.88453125 5.12352539 -9.87453125 4.13352539 -10.89453125 3.11352539 C-10.89453125 4.10352539 -10.89453125 5.09352539 -10.89453125 6.11352539 C-12.54453125 6.77352539 -14.19453125 7.43352539 -15.89453125 8.11352539 C-16.22453125 5.80352539 -16.55453125 3.49352539 -16.89453125 1.11352539 C-11.21458401 0.30063403 -5.73296922 -0.02626512 0 0 Z " fill="#013F91" transform="translate(341.89453125,248.886474609375)"/>
<path d="M0 0 C0.33 0 0.66 0 1 0 C1.13698472 14.03332368 0.75573446 27.98675352 0 42 C-1.44052734 42.67289062 -1.44052734 42.67289062 -2.91015625 43.359375 C-6.07911508 44.71734165 -6.07911508 44.71734165 -7.4375 47.25 C-8.14846037 50.72580624 -7.67822439 53.54105559 -7 57 C-9.475 57.495 -9.475 57.495 -12 58 C-12.061875 58.61875 -12.12375 59.2375 -12.1875 59.875 C-13 62 -13 62 -15.25 63.3125 C-18 64 -18 64 -23 63 C-23 43.53 -23 24.06 -23 4 C-20.03 4.33 -17.06 4.66 -14 5 C-12.768606 8.69418201 -13.35567236 11.2056261 -14 15 C-13.34 15.33 -12.68 15.66 -12 16 C-12.66 16.99 -13.32 17.98 -14 19 C-13.34 19 -12.68 19 -12 19 C-12 18.34 -12 17.68 -12 17 C-11.01 16.67 -10.02 16.34 -9 16 C-9 16.66 -9 17.32 -9 18 C-7.35 17.67 -5.7 17.34 -4 17 C-3.67 18.32 -3.34 19.64 -3 21 C-2.34 21 -1.68 21 -1 21 C-1.33 19.02 -1.66 17.04 -2 15 C-1.34 15 -0.68 15 0 15 C0 10.05 0 5.1 0 0 Z " fill="#014AA8" transform="translate(382,369)"/>
<path d="M0 0 C0.495 0.99 0.495 0.99 1 2 C-0.93254772 4.0245738 -2.63158688 5.42105792 -5 7 C-5 8.32 -5 9.64 -5 11 C-3.576875 11.3403125 -3.576875 11.3403125 -2.125 11.6875 C1 13 1 13 2.375 15.625 C2.58125 16.40875 2.7875 17.1925 3 18 C4.32 18 5.64 18 7 18 C7 18.66 7 19.32 7 20 C8.32 19.67 9.64 19.34 11 19 C11.66 20.32 12.32 21.64 13 23 C1.09820385 31.49106098 -11.14915155 35.20026324 -25.6875 35.125 C-26.44611328 35.12886719 -27.20472656 35.13273437 -27.98632812 35.13671875 C-31.2477639 35.13096158 -33.88513748 35.03828751 -37 34 C-37 33.34 -37 32.68 -37 32 C-35.68 32 -34.36 32 -33 32 C-33 31.34 -33 30.68 -33 30 C-32.34 30 -31.68 30 -31 30 C-30.67 28.02 -30.34 26.04 -30 24 C-31.32 24 -32.64 24 -34 24 C-33.34 22.35 -32.68 20.7 -32 19 C-31.34 19 -30.68 19 -30 19 C-30.185625 18.05125 -30.37125 17.1025 -30.5625 16.125 C-31 13 -31 13 -30 11 C-30.99 11 -31.98 11 -33 11 C-33.0825 11.721875 -33.165 12.44375 -33.25 13.1875 C-34.14750201 16.55313254 -35.7114278 18.41612816 -38 21 C-38.33 20.01 -38.66 19.02 -39 18 C-39.99 17.67 -40.98 17.34 -42 17 C-42.33 16.34 -42.66 15.68 -43 15 C-44.97522846 13.95191959 -46.97481509 12.9479589 -49 12 C-45.63346367 9.97163295 -43.05938903 9.76019 -39.16015625 9.76171875 C-37.45013428 9.74274536 -37.45013428 9.74274536 -35.70556641 9.72338867 C-33.90224854 9.70562378 -33.90224854 9.70562378 -32.0625 9.6875 C-19.44771407 9.39849097 -9.94361022 8.35762221 0 0 Z " fill="#0149A7" transform="translate(532,389)"/>
<path d="M0 0 C0.33 0 0.66 0 1 0 C1 2.97 1 5.94 1 9 C2.65 9 4.3 9 6 9 C6 9.66 6 10.32 6 11 C6.66 11.33 7.32 11.66 8 12 C7.01 12.99 6.02 13.98 5 15 C5.66 15 6.32 15 7 15 C6.01 17.475 6.01 17.475 5 20 C6.98 20 8.96 20 11 20 C11.33 20.66 11.66 21.32 12 22 C12.99 21.67 13.98 21.34 15 21 C15.33 18.36 15.66 15.72 16 13 C14.02 13.99 14.02 13.99 12 15 C12 13.35 12 11.7 12 10 C13.65 10 15.3 10 17 10 C17 25.18 17 40.36 17 56 C16.67 56 16.34 56 16 56 C15.67 52.04 15.34 48.08 15 44 C13.68 45.32 12.36 46.64 11 48 C10.34 48 9.68 48 9 48 C7.66666667 44.66666667 6.33333333 41.33333333 5 38 C5.66 38 6.32 38 7 38 C6.67 36.68 6.34 35.36 6 34 C5.55269531 34.37253906 5.10539062 34.74507812 4.64453125 35.12890625 C4.03996094 35.60199219 3.43539063 36.07507813 2.8125 36.5625 C2.22082031 37.03816406 1.62914062 37.51382813 1.01953125 38.00390625 C-1 39 -1 39 -6 38 C-6.33 59.45 -6.66 80.9 -7 103 C-7.33 103 -7.66 103 -8 103 C-8.02329573 93.44573783 -8.04100215 83.89148562 -8.05181217 74.33720112 C-8.05700362 69.89951376 -8.06403234 65.461846 -8.07543945 61.02416992 C-8.08640248 56.73179625 -8.0923049 52.43944128 -8.09487724 48.14705467 C-8.09670755 46.51942844 -8.10028094 44.89180309 -8.10573006 43.26418495 C-8.19338919 15.9648051 -8.19338919 15.9648051 -4 11 C-3.30296939 8.98694104 -3.30296939 8.98694104 -2.9375 6.9375 C-2.32642075 3.90538296 -1.80546691 2.70820036 0 0 Z " fill="#014EB2" transform="translate(366,493)"/>
<path d="M0 0 C1.50064955 0.0050254 3.00130072 0.00958647 4.50195312 0.01367188 C8.14716977 0.02459424 11.79232422 0.04180144 15.4375 0.0625 C15.4375 0.3925 15.4375 0.7225 15.4375 1.0625 C14.23420044 1.07651855 14.23420044 1.07651855 13.0065918 1.09082031 C9.37876361 1.14443742 5.75223708 1.22810298 2.125 1.3125 C0.86236328 1.32667969 -0.40027344 1.34085938 -1.70117188 1.35546875 C-3.51391602 1.40380859 -3.51391602 1.40380859 -5.36328125 1.453125 C-7.03644409 1.4845459 -7.03644409 1.4845459 -8.7434082 1.51660156 C-11.69034424 1.78587734 -11.69034424 1.78587734 -13.32495117 4.10058594 C-13.73334229 4.74801758 -14.1417334 5.39544922 -14.5625 6.0625 C-15.2225 6.0625 -15.8825 6.0625 -16.5625 6.0625 C-17.2225 7.7125 -17.8825 9.3625 -18.5625 11.0625 C-15.49857362 13.31538704 -14.22705712 14.15371372 -10.375 13.625 C-8.9828125 13.3465625 -8.9828125 13.3465625 -7.5625 13.0625 C-5.5625 15.0625 -5.5625 15.0625 -5.5625 24.0625 C31.7275 24.0625 69.0175 24.0625 107.4375 24.0625 C107.4375 24.3925 107.4375 24.7225 107.4375 25.0625 C93.21276675 25.08619318 78.98803669 25.10358615 64.76328754 25.11431217 C58.15378995 25.11946751 51.54430489 25.12642629 44.93481445 25.13793945 C15.41991882 25.18804198 -14.06466017 25.15345095 -43.5625 24.0625 C-43.8925 22.4125 -44.2225 20.7625 -44.5625 19.0625 C-43.9025 19.0625 -43.2425 19.0625 -42.5625 19.0625 C-42.2325 18.0725 -41.9025 17.0825 -41.5625 16.0625 C-40.5725 15.7325 -39.5825 15.4025 -38.5625 15.0625 C-38.2325 14.4025 -37.9025 13.7425 -37.5625 13.0625 C-34.11619942 14.21126686 -33.64629321 15.25390915 -31.5625 18.0625 C-30.9025 18.0625 -30.2425 18.0625 -29.5625 18.0625 C-29.315 17.010625 -29.0675 15.95875 -28.8125 14.875 C-27.79568938 11.23511272 -26.02583254 8.93638796 -23.5625 6.0625 C-23.5625 5.4025 -23.5625 4.7425 -23.5625 4.0625 C-24.2225 4.0625 -24.8825 4.0625 -25.5625 4.0625 C-25.5625 3.0725 -25.5625 2.0825 -25.5625 1.0625 C-17.04801041 -0.15659828 -8.57776523 -0.05018452 0 0 Z " fill="#0154C3" transform="translate(404.5625,248.9375)"/>
<path d="M0 0 C0.5534764 2.07553648 1 3.84365964 1 6 C1.99 5.67 2.98 5.34 4 5 C4.125 12.75 4.125 12.75 3 15 C2.01 15.33 1.02 15.66 0 16 C0.28427417 17.58467728 0.57774818 19.1677057 0.875 20.75 C1.03742188 21.63171875 1.19984375 22.5134375 1.3671875 23.421875 C1.88634825 26.00551023 1.88634825 26.00551023 3.16015625 28.14453125 C3.57587891 29.06298828 3.57587891 29.06298828 4 30 C3.01712992 32.00847365 2.01622658 34.00819591 1 36 C1.20435808 38.78647557 1.20435808 38.78647557 2 41 C0.515 41.495 0.515 41.495 -1 42 C-1 41.34 -1 40.68 -1 40 C-2.65 40.66 -4.3 41.32 -6 42 C-6 42.66 -6 43.32 -6 44 C13.305 44.495 13.305 44.495 33 45 C33 45.33 33 45.66 33 46 C27.48649415 46.02490465 21.97302178 46.04295608 16.45947266 46.05493164 C14.58772205 46.05992942 12.71597529 46.06672988 10.84423828 46.07543945 C8.13833665 46.08770621 5.43248708 46.093274 2.7265625 46.09765625 C1.90322418 46.10281754 1.07988586 46.10797882 0.2315979 46.11329651 C-5.63753622 46.11385058 -11.0916941 45.59083059 -17 45 C-17 36.09 -17 27.18 -17 18 C-15.68 18.33 -14.36 18.66 -13 19 C-10.63125401 17.81473209 -10.63125401 17.81473209 -8.375 16.0625 C-4.17539863 13 -4.17539863 13 -2 13 C-1.855625 12.4225 -1.71125 11.845 -1.5625 11.25 C-1.04166667 9.16666667 -0.52083333 7.08333333 0 5 C-0.66 5 -1.32 5 -2 5 C-1.125 1.125 -1.125 1.125 0 0 Z " fill="#003D8C" transform="translate(324,576)"/>
<path d="M0 0 C14.52 0 29.04 0 44 0 C37.68965517 8.4137931 37.68965517 8.4137931 32 11 C30.34893166 12.71835976 30.34893166 12.71835976 30 15 C30.7913437 18.20898563 30.7913437 18.20898563 32 21 C29.23735711 21.59732819 26.83967231 22 24 22 C24 19.69 24 17.38 24 15 C20.68539295 16.70892499 20.68539295 16.70892499 20.3125 20.125 C20.209375 21.07375 20.10625 22.0225 20 23 C16 23 16 23 14.07714844 21.10400391 C13.4277832 20.23694824 12.77841797 19.36989258 12.109375 18.4765625 C11.40039062 17.538125 10.69140625 16.5996875 9.9609375 15.6328125 C9.23132813 14.64023437 8.50171875 13.64765625 7.75 12.625 C7.00492187 11.64015625 6.25984375 10.6553125 5.4921875 9.640625 C0 2.29759043 0 2.29759043 0 0 Z M34 13 C34.33 13.66 34.66 14.32 35 15 C34.67 15.66 34.34 16.32 34 17 C33.01 16.67 32.02 16.34 31 16 C31.99 15.01 32.98 14.02 34 13 Z " fill="#014FB6" transform="translate(391,399)"/>
<path d="M0 0 C1.65 0 3.3 0 5 0 C5 1.32 5 2.64 5 4 C7.31 4.66 9.62 5.32 12 6 C12 4.35 12 2.7 12 1 C11.34 0.67 10.68 0.34 10 0 C14.95 0 19.9 0 25 0 C25 0.99 25 1.98 25 3 C25.66 3 26.32 3 27 3 C27.495 4.485 27.495 4.485 28 6 C26.78505368 7.47763742 25.56273769 8.95077822 24.28125 10.37109375 C22.45193998 12.69677142 21.74208052 15.16660166 21 18 C17.63408134 16.55746343 15.48952921 14.66735273 13 12 C12.67 12.99 12.34 13.98 12 15 C11.01 15.33 10.02 15.66 9 16 C8.67 16.66 8.34 17.32 8 18 C7.34 18 6.68 18 6 18 C6.33 19.32 6.66 20.64 7 22 C25.315 22.495 25.315 22.495 44 23 C44 23.33 44 23.66 44 24 C38.88118835 24.02511494 33.7624142 24.04305163 28.64355469 24.05493164 C26.90982436 24.05989522 25.17609806 24.06666827 23.44238281 24.07543945 C12.24693418 24.13057347 1.16540941 23.86450054 -10 23 C-10 21.35 -10 19.7 -10 18 C-7.92446352 17.4465236 -6.15634036 17 -4 17 C-2.04968392 12.05250648 -2.04968392 12.05250648 -3 7 C-1.35 6.34 0.3 5.68 2 5 C1.34 3.35 0.68 1.7 0 0 Z " fill="#0148A6" transform="translate(354,250)"/>
<path d="M0 0 C0.66 0 1.32 0 2 0 C2 5.28 2 10.56 2 16 C10.91 16 19.82 16 29 16 C29 16.33 29 16.66 29 17 C23.39 17 17.78 17 12 17 C11.87625 18.5675 11.7525 20.135 11.625 21.75 C11.39920287 24.61009703 11.23115132 26.58050316 9.83984375 29.10546875 C9.56269531 29.73066406 9.28554688 30.35585938 9 31 C9.65833883 32.88049741 9.65833883 32.88049741 10.9375 34.5625 C12.15234375 36.31640625 12.15234375 36.31640625 13 38 C12.67 38.99 12.34 39.98 12 41 C4.41 41 -3.18 41 -11 41 C-11 39.68 -11 38.36 -11 37 C-8.525 36.505 -8.525 36.505 -6 36 C-6 36.66 -6 37.32 -6 38 C-5.34 37.34 -4.68 36.68 -4 36 C-4.2784375 35.13375 -4.2784375 35.13375 -4.5625 34.25 C-5 32 -5 32 -3.4375 29 C-2.963125 28.01 -2.48875 27.02 -2 26 C-2.62230792 24.64539486 -3.29762941 23.31487558 -4 22 C-4.43098753 20.09514151 -4.80392764 18.17643418 -5.125 16.25 C-5.29257812 15.26515625 -5.46015625 14.2803125 -5.6328125 13.265625 C-5.75398438 12.51796875 -5.87515625 11.7703125 -6 11 C-4.68 11 -3.36 11 -2 11 C-1.93941406 10.28972656 -1.87882812 9.57945312 -1.81640625 8.84765625 C-1.73261719 7.92855469 -1.64882813 7.00945313 -1.5625 6.0625 C-1.48128906 5.14597656 -1.40007812 4.22945312 -1.31640625 3.28515625 C-1 1 -1 1 0 0 Z " fill="#014CAD" transform="translate(329,580)"/>
<path d="M0 0 C0.99 0 1.98 0 3 0 C4.44213867 1.46875 4.44213867 1.46875 5.91796875 3.5 C6.44970703 4.221875 6.98144531 4.94375 7.52929688 5.6875 C8.35010742 6.8321875 8.35010742 6.8321875 9.1875 8 C9.74630859 8.763125 10.30511719 9.52625 10.88085938 10.3125 C12.26269692 12.20219237 13.6351601 14.09801324 15 16 C13.73220443 18.53559113 12.08937386 20.10056922 10 22 C9.34 22 8.68 22 8 22 C8 22.66 8 23.32 8 24 C9.32 24 10.64 24 12 24 C12 24.99 12 25.98 12 27 C7.53763531 28.80619523 4.68965706 29.11658501 0 28 C-0.66 30.97 -1.32 33.94 -2 37 C-12.74071365 26.54507031 -12.74071365 26.54507031 -13.2265625 19.90234375 C-12.9694991 17.21012567 -12.59645663 14.63643853 -12 12 C-10.68 12 -9.36 12 -8 12 C-7.855625 12.94875 -7.71125 13.8975 -7.5625 14.875 C-7.17064601 17.8934494 -7.17064601 17.8934494 -6 20 C-4.68 19.67 -3.36 19.34 -2 19 C-2.02320313 18.21496094 -2.04640625 17.42992187 -2.0703125 16.62109375 C-2.17284781 10.65207397 -2.04580539 5.62596482 0 0 Z " fill="#023E8D" transform="translate(474,472)"/>
<path d="M0 0 C0.33 0.66 0.66 1.32 1 2 C-0.93254772 4.0245738 -2.63158688 5.42105792 -5 7 C-5 8.32 -5 9.64 -5 11 C-4.05125 11.226875 -3.1025 11.45375 -2.125 11.6875 C1 13 1 13 2.375 15.625 C2.684375 16.800625 2.684375 16.800625 3 18 C4.32 18 5.64 18 7 18 C7 18.66 7 19.32 7 20 C8.32 19.67 9.64 19.34 11 19 C11.66 20.32 12.32 21.64 13 23 C4.0778342 28.98637962 -2.99428322 33.58959197 -14 33 C-14 32.01 -14 31.02 -14 30 C-13.34 30 -12.68 30 -12 30 C-12.33 27.69 -12.66 25.38 -13 23 C-12.01 22.34 -11.02 21.68 -10 21 C-10.71563266 18.9837767 -10.71563266 18.9837767 -12 17 C-14.05000871 16.19471111 -14.05000871 16.19471111 -16 16 C-16.33 14.02 -16.66 12.04 -17 10 C-16.01 10 -15.02 10 -14 10 C-14 9.34 -14 8.68 -14 8 C-13.15695312 7.59007812 -12.31390625 7.18015625 -11.4453125 6.7578125 C-10.34960938 6.21898437 -9.25390625 5.68015625 -8.125 5.125 C-7.03445313 4.59132813 -5.94390625 4.05765625 -4.8203125 3.5078125 C-1.96117453 2.15464063 -1.96117453 2.15464063 0 0 Z " fill="#0152BE" transform="translate(532,389)"/>
<path d="M0 0 C4.31659574 2.21499571 6.56022316 4.7223554 9.3125 8.6875 C10.00988281 9.68136719 10.70726562 10.67523438 11.42578125 11.69921875 C12.20501953 12.83810547 12.20501953 12.83810547 13 14 C12.67 14.66 12.34 15.32 12 16 C11.34 16 10.68 16 10 16 C10 16.66 10 17.32 10 18 C6.125 17.125 6.125 17.125 5 16 C4.01 18.475 4.01 18.475 3 21 C2.34 21 1.68 21 1 21 C1.33 22.65 1.66 24.3 2 26 C0.68 26.33 -0.64 26.66 -2 27 C-2.33 26.34 -2.66 25.68 -3 25 C-6.72614153 26.11854586 -6.72614153 26.11854586 -9 29 C-14.82636656 22.32395498 -14.82636656 22.32395498 -15.5 17.1875 C-15 14 -15 14 -13 11 C-10.99318913 10.93526417 -8.98281286 10.88068749 -6.9765625 10.9609375 C-4.83288127 11.00330274 -3.03284468 10.67761489 -1 10 C-1 9.01 -1 8.02 -1 7 C-2.32 7 -3.64 7 -5 7 C-5 5 -5 5 -2.5 2.375 C-1.675 1.59125 -0.85 0.8075 0 0 Z " fill="#0147A2" transform="translate(487,489)"/>
<path d="M0 0 C1.65 0.99 3.3 1.98 5 3 C5 2.34 5 1.68 5 1 C5.99 0.67 6.98 0.34 8 0 C10 2 10 2 10.125 5.125 C10.08375 6.07375 10.0425 7.0225 10 8 C9.01 8.495 9.01 8.495 8 9 C8 7.68 8 6.36 8 5 C7.071875 5.66 6.14375 6.32 5.1875 7 C2 9 2 9 -1 9 C-1 9.66 -1 10.32 -1 11 C-0.01 11 0.98 11 2 11 C2.33 11.66 2.66 12.32 3 13 C4.65 13 6.3 13 8 13 C8.33 12.01 8.66 11.02 9 10 C10.65 11.65 12.3 13.3 14 15 C13.54625 15.5775 13.0925 16.155 12.625 16.75 C11.15886484 18.7800333 10.05142216 20.73539843 9 23 C8.01 23 7.02 23 6 23 C3.22930256 25.18731921 3.22930256 25.18731921 1 28 C1 29.32 1 30.64 1 32 C0.34 32 -0.32 32 -1 32 C-2.74067463 29.84729604 -4.34972479 27.69887681 -5.9375 25.4375 C-6.60168945 24.52387695 -6.60168945 24.52387695 -7.27929688 23.59179688 C-10.14643793 19.55387095 -12.20063901 15.61420292 -14 11 C-11.69 10.34 -9.38 9.68 -7 9 C-7 9.99 -7 10.98 -7 12 C-6.01 11.67 -5.02 11.34 -4 11 C-4 9.35 -4 7.7 -4 6 C-3.34 5.67 -2.68 5.34 -2 5 C-1.27840576 3.35636866 -0.60648579 1.68949614 0 0 Z " fill="#0153BE" transform="translate(492,504)"/>
<path d="M0 0 C2.97 0.33 5.94 0.66 9 1 C10.231394 4.69418201 9.64432764 7.2056261 9 11 C9.66 11.33 10.32 11.66 11 12 C10.01 13.485 10.01 13.485 9 15 C9.66 15.33 10.32 15.66 11 16 C8.03 19.465 8.03 19.465 5 23 C5.66 23.66 6.32 24.32 7 25 C6.01 25 5.02 25 4 25 C4.67883043 28.11547441 5.74106902 30.85137721 7.0625 33.75 C7.60583984 34.94882812 7.60583984 34.94882812 8.16015625 36.171875 C8.43730469 36.77515625 8.71445312 37.3784375 9 38 C7 39 7 39 0 38 C0 25.46 0 12.92 0 0 Z " fill="#0154BE" transform="translate(359,373)"/>
<path d="M0 0 C0.66 0 1.32 0 2 0 C2 14.52 2 29.04 2 44 C0.515 44.495 0.515 44.495 -1 45 C-1 44.34 -1 43.68 -1 43 C-1.66 42.67 -2.32 42.34 -3 42 C-3.4140625 39.93359375 -3.4140625 39.93359375 -3.625 37.4375 C-3.73714844 36.19806641 -3.73714844 36.19806641 -3.8515625 34.93359375 C-3.92503906 33.97646484 -3.92503906 33.97646484 -4 33 C-3.34 33 -2.68 33 -2 33 C-2.680625 32.360625 -3.36125 31.72125 -4.0625 31.0625 C-6.79645494 26.74108736 -5.90391089 23.843598 -5 19 C-4.896875 17.865625 -4.79375 16.73125 -4.6875 15.5625 C-4 13 -4 13 -1.9375 11.625 C-1.298125 11.41875 -0.65875 11.2125 0 11 C-0.185625 10.113125 -0.37125 9.22625 -0.5625 8.3125 C-0.98042484 5.14821189 -0.80777742 3.05160358 0 0 Z " fill="#0046A0" transform="translate(329,297)"/>
<path d="M0 0 C14.52 0 29.04 0 44 0 C37.68965517 8.4137931 37.68965517 8.4137931 32 11 C30.34893166 12.71835976 30.34893166 12.71835976 30 15 C30.7913437 18.20898563 30.7913437 18.20898563 32 21 C29.23735711 21.59732819 26.83967231 22 24 22 C24 20.02 24 18.04 24 16 C24.66 15.67 25.32 15.34 26 15 C26.39306011 12.51307973 26.39306011 12.51307973 26.5 9.625 C26.70460671 5.74770285 26.79475989 4.30786016 29 1 C19.43 1.33 9.86 1.66 0 2 C0 1.34 0 0.68 0 0 Z M34 13 C34.33 13.66 34.66 14.32 35 15 C34.67 15.66 34.34 16.32 34 17 C33.01 16.67 32.02 16.34 31 16 C31.99 15.01 32.98 14.02 34 13 Z " fill="#014192" transform="translate(391,399)"/>
<path d="M0 0 C0.33 0.66 0.66 1.32 1 2 C2.98 2 4.96 2 7 2 C7.88070797 9.23431599 8.12570502 16.3418371 8.0625 23.625 C8.05798828 24.62917969 8.05347656 25.63335938 8.04882812 26.66796875 C8.03718967 29.11204471 8.0208424 31.5559882 8 34 C7.67 34 7.34 34 7 34 C6.67 30.04 6.34 26.08 6 22 C4.68 23.32 3.36 24.64 2 26 C1.34 26 0.68 26 0 26 C-1.33333333 22.66666667 -2.66666667 19.33333333 -4 16 C-3.34 16 -2.68 16 -2 16 C-1.855625 14.72125 -1.71125 13.4425 -1.5625 12.125 C-1.29357254 9.74307106 -1.07773654 8.15547309 0 6 C-0.32550502 4.33178677 -0.65846063 2.66500443 -1 1 C-0.67 0.67 -0.34 0.34 0 0 Z " fill="#0157C6" transform="translate(375,515)"/>
<path d="M0 0 C7.92 0 15.84 0 24 0 C24 0.33 24 0.66 24 1 C21.36 1.33 18.72 1.66 16 2 C15.67 4.64 15.34 7.28 15 10 C15.66 10.33 16.32 10.66 17 11 C15.68 13.31 14.36 15.62 13 18 C9.70614401 14.87234776 6.97803805 11.50346891 4.25 7.875 C3.83878906 7.33746094 3.42757813 6.79992187 3.00390625 6.24609375 C0 2.244212 0 2.244212 0 0 Z " fill="#034498" transform="translate(495,451)"/>
<path d="M0 0 C0.66 0 1.32 0 2 0 C2 0.66 2 1.32 2 2 C4.475 2.495 4.475 2.495 7 3 C7 3.99 7 4.98 7 6 C6.34 6 5.68 6 5 6 C5 6.66 5 7.32 5 8 C1.125 7.125 1.125 7.125 0 6 C-0.66 7.65 -1.32 9.3 -2 11 C-2.66 11 -3.32 11 -4 11 C-3.67 12.65 -3.34 14.3 -3 16 C-4.32 16.33 -5.64 16.66 -7 17 C-7.33 16.34 -7.66 15.68 -8 15 C-11.72614153 16.11854586 -11.72614153 16.11854586 -14 19 C-18 13.375 -18 13.375 -18 10 C-17.34 10 -16.68 10 -16 10 C-15.67 9.01 -15.34 8.02 -15 7 C-11.86650268 5.95550089 -11.01031744 6.06576355 -8 7 C-8 8.32 -8 9.64 -8 11 C-6.01979579 10.55966008 -6.01979579 10.55966008 -4 9 C-3.02598865 6.96304582 -2.30831981 4.92458579 -1.61328125 2.77734375 C-1 1 -1 1 0 0 Z " fill="#014DAE" transform="translate(492,499)"/>
<path d="M0 0 C1.70884005 1.62339805 3.37446717 3.29319053 5 5 C5 5.66 5 6.32 5 7 C4.01 7.495 4.01 7.495 3 8 C3 8.99 3 9.98 3 11 C2.68330179 13.33564933 2.35179197 15.6693782 2 18 C0.68 18 -0.64 18 -2 18 C-2.66 17.01 -3.32 16.02 -4 15 C-5.32 15 -6.64 15 -8 15 C-8.33 16.65 -8.66 18.3 -9 20 C-11.16874252 19.49396008 -12.99967627 19.00016187 -15 18 C-14.39301257 13.87248551 -12.96189209 10.6678852 -11 7 C-9.68 7 -8.36 7 -7 7 C-7 7.99 -7 8.98 -7 10 C-7.66 10 -8.32 10 -9 10 C-9 10.66 -9 11.32 -9 12 C-6.69 12 -4.38 12 -2 12 C-2.185625 10.72125 -2.37125 9.4425 -2.5625 8.125 C-3.125 4.25 -3.125 4.25 -2 2 C-1.34 2 -0.68 2 0 2 C0 1.34 0 0.68 0 0 Z " fill="#01459D" transform="translate(591,540)"/>
<path d="M0 0 C0.66 0.33 1.32 0.66 2 1 C1.67 1.66 1.34 2.32 1 3 C1.0950739 5.0480428 1.0950739 5.0480428 2 7 C5.4612245 9.36517008 8.46039732 9.17312844 12.5625 9.0625 C20.55415684 8.92283998 28.51435156 9.18559615 36.5 9.5 C37.72404541 9.54777588 38.94809082 9.59555176 40.20922852 9.64477539 C43.13959003 9.76079438 46.06983687 9.87908897 49 10 C49.33 9.34 49.66 8.68 50 8 C50.495 9.485 50.495 9.485 51 11 C18.99 11 -13.02 11 -46 11 C-46 10.67 -46 10.34 -46 10 C-32.8 10 -19.6 10 -6 10 C-5.67 8.35 -5.34 6.7 -5 5 C-2.4375 2.1875 -2.4375 2.1875 0 0 Z " fill="#023C84" transform="translate(600,611)"/>
<path d="M0 0 C0.6875 2.1875 0.6875 2.1875 1 5 C0 6.66666667 -1 8.33333333 -2 10 C-1.78670551 12.74239143 -1.78670551 12.74239143 -1 15 C1.31 15 3.62 15 6 15 C6 15.33 6 15.66 6 16 C3.2291017 16.02696009 0.4584655 16.04681952 -2.3125 16.0625 C-3.09818359 16.07087891 -3.88386719 16.07925781 -4.69335938 16.08789062 C-5.45068359 16.09111328 -6.20800781 16.09433594 -6.98828125 16.09765625 C-8.03302612 16.10551147 -8.03302612 16.10551147 -9.09887695 16.11352539 C-11 16 -11 16 -14 15 C-14 14.34 -14 13.68 -14 13 C-12.68 13 -11.36 13 -10 13 C-10 12.34 -10 11.68 -10 11 C-9.34 11 -8.68 11 -8 11 C-7.67 9.02 -7.34 7.04 -7 5 C-8.32 5 -9.64 5 -11 5 C-10.1875 2.5625 -10.1875 2.5625 -9 0 C-5.52176885 -1.15941038 -3.54104422 -0.70820884 0 0 Z " fill="#004092" transform="translate(509,408)"/>
<path d="M0 0 C0.66 0 1.32 0 2 0 C2 5.28 2 10.56 2 16 C10.91 16 19.82 16 29 16 C29 16.33 29 16.66 29 17 C20.42 17 11.84 17 3 17 C3 18.65 3 20.3 3 22 C1 23.8125 1 23.8125 -1 25 C-4.15111212 22.47047712 -4.58798017 20.23243734 -5.1875 16.3125 C-5.34605469 15.31863281 -5.50460937 14.32476563 -5.66796875 13.30078125 C-5.77753906 12.54152344 -5.88710938 11.78226563 -6 11 C-4.68 11 -3.36 11 -2 11 C-1.93941406 10.28972656 -1.87882812 9.57945312 -1.81640625 8.84765625 C-1.73261719 7.92855469 -1.64882813 7.00945313 -1.5625 6.0625 C-1.48128906 5.14597656 -1.40007812 4.22945312 -1.31640625 3.28515625 C-1 1 -1 1 0 0 Z " fill="#0148A3" transform="translate(329,580)"/>
<path d="M0 0 C0.33 0 0.66 0 1 0 C1 2.97 1 5.94 1 9 C2.65 9 4.3 9 6 9 C6 9.66 6 10.32 6 11 C6.66 11.33 7.32 11.66 8 12 C7.01 12.99 6.02 13.98 5 15 C5.66 15 6.32 15 7 15 C6.34 16.32 5.68 17.64 5 19 C4.67 18.34 4.34 17.68 4 17 C2.68 17 1.36 17 0 17 C0 17.66 0 18.32 0 19 C-1.32 19.33 -2.64 19.66 -4 20 C-4 19.01 -4 18.02 -4 17 C-4.99 16.34 -5.98 15.68 -7 15 C-6.54625 14.505 -6.0925 14.01 -5.625 13.5 C-3.7697227 10.64572723 -3.19281118 8.20432978 -2.52734375 4.90234375 C-2 3 -2 3 0 0 Z " fill="#0148A3" transform="translate(366,493)"/>
<path d="M0 0 C0.66 0.99 1.32 1.98 2 3 C2.33 2.34 2.66 1.68 3 1 C3.66 1 4.32 1 5 1 C4.814375 2.093125 4.62875 3.18625 4.4375 4.3125 C3.7421932 7.93624133 3.7421932 7.93624133 5 11 C0.50343896 13.24828052 -3.07872966 13.16682272 -8 13 C-8 12.01 -8 11.02 -8 10 C-7.34 10 -6.68 10 -6 10 C-6.33 7.69 -6.66 5.38 -7 3 C-3.375 0 -3.375 0 0 0 Z " fill="#014CB1" transform="translate(526,409)"/>
<path d="M0 0 C1.40185547 0.00966797 1.40185547 0.00966797 2.83203125 0.01953125 C4.28416016 0.04466797 4.28416016 0.04466797 5.765625 0.0703125 C6.74917969 0.07933594 7.73273438 0.08835937 8.74609375 0.09765625 C11.16951907 0.12118465 13.59244722 0.15405882 16.015625 0.1953125 C14.015625 1.1953125 12.015625 2.1953125 10.015625 3.1953125 C10.015625 2.5353125 10.015625 1.8753125 10.015625 1.1953125 C9.025625 1.1953125 8.035625 1.1953125 7.015625 1.1953125 C6.933125 1.9171875 6.850625 2.6390625 6.765625 3.3828125 C5.86812299 6.74844504 4.3041972 8.61144066 2.015625 11.1953125 C1.685625 10.2053125 1.355625 9.2153125 1.015625 8.1953125 C0.025625 7.8653125 -0.964375 7.5353125 -1.984375 7.1953125 C-2.314375 6.5353125 -2.644375 5.8753125 -2.984375 5.1953125 C-4.95960346 4.14723209 -6.95919009 3.1432714 -8.984375 2.1953125 C-5.85508322 0.36461347 -3.60794354 -0.04399931 0 0 Z " fill="#014093" transform="translate(491.984375,398.8046875)"/>
<path d="M0 0 C1 2 1 2 0.3125 4.375 C-1 7 -1 7 -3.0625 9 C-5.31873885 11.32902075 -5.64762415 12.82861733 -6 16 C-7.65 16 -9.3 16 -11 16 C-11 12.04 -11 8.08 -11 4 C-9.68 4.33 -8.36 4.66 -7 5 C-5.0169494 4.04874049 -5.0169494 4.04874049 -3.25 2.5625 C-2.63640625 2.08941406 -2.0228125 1.61632812 -1.390625 1.12890625 C-0.93171875 0.75636719 -0.4728125 0.38382813 0 0 Z " fill="#00367D" transform="translate(318,590)"/>
<path d="M0 0 C3.2542015 2.83430453 4.5206753 4.68607774 5 9 C4.34 9 3.68 9 3 9 C3 12.3 3 15.6 3 19 C-1 20 -1 20 -4 19 C-4 18.34 -4 17.68 -4 17 C-3.34 17 -2.68 17 -2 17 C-1.89085953 12.82900941 -1.89085953 12.82900941 -2.625 8.75 C-2.810625 7.88375 -2.810625 7.88375 -3 7 C-2.34 6.34 -1.68 5.68 -1 5 C-0.35232207 2.42938689 -0.35232207 2.42938689 0 0 Z " fill="#014DB0" transform="translate(586,533)"/>
<path d="M0 0 C-2.75 6.875 -2.75 6.875 -5 8 C-5.33 6.68 -5.66 5.36 -6 4 C-6.99 4 -7.98 4 -9 4 C-9.66 6.31 -10.32 8.62 -11 11 C-12.8125 10.9375 -12.8125 10.9375 -15 10 C-16.06076606 7.69365661 -17.06504827 5.36015036 -18 3 C-15.37700199 2.30391966 -12.7520793 1.61784618 -10.125 0.9375 C-9.00544922 0.63875977 -9.00544922 0.63875977 -7.86328125 0.33398438 C-2.2265625 -1.11328125 -2.2265625 -1.11328125 0 0 Z " fill="#024AA9" transform="translate(537,447)"/>
<path d="M0 0 C-0.33 1.32 -0.66 2.64 -1 4 C0.32 4.66 1.64 5.32 3 6 C1 6.66666667 -1 7.33333333 -3 8 C-3.33 9.98 -3.66 11.96 -4 14 C-5.32 14 -6.64 14 -8 14 C-8.33 13.01 -8.66 12.02 -9 11 C-8.34 11 -7.68 11 -7 11 C-7 10.34 -7 9.68 -7 9 C-7.66 8.67 -8.32 8.34 -9 8 C-8.34 7.01 -7.68 6.02 -7 5 C-6.83286431 2.37468476 -6.83286431 2.37468476 -7 0 C-3.86650268 -1.04449911 -3.01031744 -0.93423645 0 0 Z " fill="#0149A8" transform="translate(415,408)"/>
<path d="M0 0 C2.1640625 -0.29296875 2.1640625 -0.29296875 4.625 -0.1875 C5.44226563 -0.16042969 6.25953125 -0.13335937 7.1015625 -0.10546875 C8.04128906 -0.05326172 8.04128906 -0.05326172 9 0 C8.67 0.99 8.34 1.98 8 3 C7.34 3 6.68 3 6 3 C6 4.32 6 5.64 6 7 C5.071875 7.12375 5.071875 7.12375 4.125 7.25 C1.8234856 7.79994195 1.8234856 7.79994195 0.875 10 C0.58625 10.66 0.2975 11.32 0 12 C-0.99 12.495 -0.99 12.495 -2 13 C-2.05416188 11.39620659 -2.09286638 9.79188594 -2.125 8.1875 C-2.14820313 7.29417969 -2.17140625 6.40085937 -2.1953125 5.48046875 C-2 3 -2 3 0 0 Z " fill="#0147A2" transform="translate(420,400)"/>
<path d="M0 0 C0.66 0.66 1.32 1.32 2 2 C1.7578125 4.1640625 1.7578125 4.1640625 1.125 6.625 C0.92132812 7.44226563 0.71765625 8.25953125 0.5078125 9.1015625 C0.25644531 10.04128906 0.25644531 10.04128906 0 11 C-2.64 10.34 -5.28 9.68 -8 9 C-8.625 6.125 -8.625 6.125 -9 3 C-8.34 2.34 -7.68 1.68 -7 1 C-4.54901444 1.39532025 -2.36095721 2.21301426 0 3 C0 2.01 0 1.02 0 0 Z " fill="#0154C1" transform="translate(526,455)"/>
<path d="M0 0 C1.98 0 3.96 0 6 0 C6.33 1.32 6.66 2.64 7 4 C8.32 3.34 9.64 2.68 11 2 C11 3.32 11 4.64 11 6 C9.125 7.5625 9.125 7.5625 7 9 C6.01 10.485 6.01 10.485 5 12 C4.67 10.68 4.34 9.36 4 8 C2.68 8 1.36 8 0 8 C0.185625 7.05125 0.37125 6.1025 0.5625 5.125 C1.28686632 2.10131207 1.28686632 2.10131207 0 0 Z " fill="#013C87" transform="translate(320,291)"/>
<path d="M0 0 C10.56 0 21.12 0 32 0 C32 0.33 32 0.66 32 1 C24.74 1.33 17.48 1.66 10 2 C10 3.65 10 5.3 10 7 C5.25 6.125 5.25 6.125 3 5 C3 3.68 3 2.36 3 1 C2.01 0.67 1.02 0.34 0 0 Z " fill="#024194" transform="translate(356,249)"/>
<path d="M0 0 C0.33 0.99 0.66 1.98 1 3 C2.65 3 4.3 3 6 3 C5.67 5.31 5.34 7.62 5 10 C2.36 10 -0.28 10 -3 10 C-3.36923077 3.47692308 -3.36923077 3.47692308 -1.5 1.0625 C-1.005 0.711875 -0.51 0.36125 0 0 Z " fill="#0049A7" transform="translate(589,611)"/>
<path d="M0 0 C-1.32 0.33 -2.64 0.66 -4 1 C-4.85755101 3.57265303 -5.02914977 4.88048595 -4.375 7.5625 C-4 10 -4 10 -5.3125 11.8125 C-7 13 -7 13 -9 13 C-8.835 12.319375 -8.67 11.63875 -8.5 10.9375 C-7.80423409 7.3465002 -7.80423409 7.3465002 -8 1 C-14.93 0.505 -14.93 0.505 -22 0 C-22 -0.33 -22 -0.66 -22 -1 C-18.70926338 -1.22531972 -15.41750581 -1.42735982 -12.125 -1.625 C-10.71927734 -1.72167969 -10.71927734 -1.72167969 -9.28515625 -1.8203125 C-8.38925781 -1.871875 -7.49335937 -1.9234375 -6.5703125 -1.9765625 C-5.74289551 -2.02893066 -4.91547852 -2.08129883 -4.06298828 -2.13525391 C-2 -2 -2 -2 0 0 Z " fill="#013E8F" transform="translate(602,597)"/>
<path d="M0 0 C2.64 0 5.28 0 8 0 C7.91266424 1.60517097 7.80447776 3.20921662 7.6875 4.8125 C7.62949219 5.70582031 7.57148438 6.59914063 7.51171875 7.51953125 C6.93686419 10.30604 6.1793144 11.24135754 4 13 C4.33 11.35 4.66 9.7 5 8 C3.68 7.67 2.36 7.34 1 7 C0 2.25 0 2.25 0 0 Z " fill="#0152BA" transform="translate(333,597)"/>
<path d="M0 0 C1.65 0 3.3 0 5 0 C5 7.92 5 15.84 5 24 C4.67 24 4.34 24 4 24 C4 20.7 4 17.4 4 14 C2.02 14 0.04 14 -2 14 C-2 13.34 -2 12.68 -2 12 C-2.99 12.33 -3.98 12.66 -5 13 C-5 12.34 -5 11.68 -5 11 C-5.66 10.67 -6.32 10.34 -7 10 C-5.02 10 -3.04 10 -1 10 C-0.67 10.66 -0.34 11.32 0 12 C0.99 11.67 1.98 11.34 3 11 C3.33 8.36 3.66 5.72 4 3 C2.02 3.99 2.02 3.99 0 5 C0 3.35 0 1.7 0 0 Z " fill="#024DB1" transform="translate(378,503)"/>
<path d="M0 0 C0.99 0.66 1.98 1.32 3 2 C3.41137202 5.03866799 3.13193156 7.92159703 3 11 C0.03 11 -2.94 11 -6 11 C-6.33 10.01 -6.66 9.02 -7 8 C-5 6 -5 6 -2.375 5.875 C-1.59125 5.91625 -0.8075 5.9575 0 6 C0 4.02 0 2.04 0 0 Z " fill="#0059D5" transform="translate(396,262)"/>
<path d="M0 0 C-0.52320367 3.76706644 -1.27388801 6.27388801 -4 9 C-5.32 9 -6.64 9 -8 9 C-8 6.36 -8 3.72 -8 1 C-5.29120665 -0.35439668 -2.99066732 -0.06501451 0 0 Z " fill="#01449A" transform="translate(381,493)"/>
<path d="M0 0 C0.66 0.33 1.32 0.66 2 1 C1.67 1.99 1.34 2.98 1 4 C20.305 4.495 20.305 4.495 40 5 C40 5.33 40 5.66 40 6 C34.35834639 6.07410727 28.71697553 6.12858167 23.07495117 6.16479492 C21.15530462 6.1798898 19.2356926 6.20036773 17.31616211 6.22631836 C14.55834436 6.26267109 11.8009822 6.27971912 9.04296875 6.29296875 C8.18350143 6.30845261 7.32403412 6.32393646 6.43852234 6.33988953 C5.63791885 6.34011612 4.83731537 6.34034271 4.01245117 6.34057617 C2.95655037 6.35056892 2.95655037 6.35056892 1.87931824 6.36076355 C-0.53899323 5.8965321 -1.43850535 4.84835389 -3 3 C-2.01 2.01 -1.02 1.02 0 0 Z " fill="#034596" transform="translate(317,616)"/>
<path d="M0 0 C0 3.96 0 7.92 0 12 C-0.99 12.33 -1.98 12.66 -3 13 C-3 12.34 -3 11.68 -3 11 C-3.66 10.67 -4.32 10.34 -5 10 C-5.625 6.9375 -5.625 6.9375 -6 4 C-1.125 0 -1.125 0 0 0 Z " fill="#0149AB" transform="translate(331,329)"/>
<path d="M0 0 C2.5 1.25 2.5 1.25 5 3 C5 4.32 5 5.64 5 7 C5.99 7 6.98 7 8 7 C8 7.66 8 8.32 8 9 C7.01 9 6.02 9 5 9 C4.67 10.32 4.34 11.64 4 13 C0.65701008 11.32850504 0.18881264 8.39660753 -1 5 C-0.6875 2.0625 -0.6875 2.0625 0 0 Z " fill="#0246A0" transform="translate(340,255)"/>
<path d="M0 0 C6.75 2.875 6.75 2.875 9 4 C7.68 6.31 6.36 8.62 5 11 C2.66475218 8.74259377 0.81294927 6.7194239 -1 4 C-0.625 1.8125 -0.625 1.8125 0 0 Z " fill="#014CAF" transform="translate(503,458)"/>
<path d="M0 0 C0.33 0.99 0.66 1.98 1 3 C3.01508358 3.73323796 3.01508358 3.73323796 5 4 C4.01 4.495 4.01 4.495 3 5 C2.67 5.99 2.34 6.98 2 8 C-1.0625 9.6875 -1.0625 9.6875 -4 11 C-4 8.03 -4 5.06 -4 2 C-2.68 1.34 -1.36 0.68 0 0 Z " fill="#0156C6" transform="translate(363,313)"/>
<path d="M0 0 C10.56 0 21.12 0 32 0 C32 0.33 32 0.66 32 1 C30.79670044 1.01401855 30.79670044 1.01401855 29.5690918 1.02832031 C25.94126361 1.08193742 22.31473708 1.16560298 18.6875 1.25 C17.42486328 1.26417969 16.16222656 1.27835938 14.86132812 1.29296875 C13.04858398 1.34130859 13.04858398 1.34130859 11.19921875 1.390625 C9.52605591 1.4220459 9.52605591 1.4220459 7.8190918 1.45410156 C4.87215576 1.72337734 4.87215576 1.72337734 3.23754883 4.03808594 C2.82915771 4.68551758 2.4207666 5.33294922 2 6 C1.34 6 0.68 6 0 6 C0 4.02 0 2.04 0 0 Z " fill="#0058CC" transform="translate(388,249)"/>
<path d="M0 0 C0.33 0.66 0.66 1.32 1 2 C2.2065625 1.7215625 2.2065625 1.7215625 3.4375 1.4375 C4.7059375 1.2209375 4.7059375 1.2209375 6 1 C7 2 7 2 7.0625 4.5625 C7.041875 5.366875 7.02125 6.17125 7 7 C5 8 5 8 3.0625 7.8125 C0.38829881 6.7590268 -0.52764593 5.42938422 -2 3 C-2 2.34 -2 1.68 -2 1 C-1.34 0.67 -0.68 0.34 0 0 Z " fill="#0156C1" transform="translate(372,385)"/>
<path d="M0 0 C0.66 0.33 1.32 0.66 2 1 C0.515 4.96 0.515 4.96 -1 9 C-0.34 9 0.32 9 1 9 C1.33 10.65 1.66 12.3 2 14 C0.35 14.33 -1.3 14.66 -3 15 C-3.08142927 13.2507786 -3.13938541 11.50045458 -3.1875 9.75 C-3.22230469 8.77546875 -3.25710938 7.8009375 -3.29296875 6.796875 C-2.96075202 3.62531258 -2.11327721 2.32959693 0 0 Z " fill="#004194" transform="translate(327,308)"/>
<path d="M0 0 C3 1 3 1 4.1875 3.0625 C4.455625 3.701875 4.72375 4.34125 5 5 C2.36 4.67 -0.28 4.34 -3 4 C-2.79375 4.598125 -2.5875 5.19625 -2.375 5.8125 C-2 8 -2 8 -4 11 C-4.99 10.67 -5.98 10.34 -7 10 C-7 8.68 -7 7.36 -7 6 C-6.34 6 -5.68 6 -5 6 C-4.67 5.01 -4.34 4.02 -4 3 C-3.01 2.67 -2.02 2.34 -1 2 C-0.67 1.34 -0.34 0.68 0 0 Z " fill="#0050B6" transform="translate(367,262)"/>
<path d="M0 0 C0.66 0 1.32 0 2 0 C1.67 1.32 1.34 2.64 1 4 C0.34 3.01 -0.32 2.02 -1 1 C-0.67 0.67 -0.34 0.34 0 0 Z M-3 4 C-1.906875 4.185625 -0.81375 4.37125 0.3125 4.5625 C3.93624133 5.2578068 3.93624133 5.2578068 7 4 C6.67 5.32 6.34 6.64 6 8 C2.72724974 8 0.153368 7.70074844 -3 7 C-3 6.01 -3 5.02 -3 4 Z " fill="#0147A8" transform="translate(315,332)"/>
<path d="M0 0 C0.78375 0.04125 1.5675 0.0825 2.375 0.125 C2.045 2.105 1.715 4.085 1.375 6.125 C-0.625 6.125 -2.625 6.125 -4.625 6.125 C-4.955 7.115 -5.285 8.105 -5.625 9.125 C-4.6356383 0.22074468 -4.6356383 0.22074468 0 0 Z " fill="#0048A4" transform="translate(592.625,596.875)"/>
<path d="M0 0 C2.31 0 4.62 0 7 0 C7.33 1.65 7.66 3.3 8 5 C6.02 5.99 6.02 5.99 4 7 C1.49962266 4.82575883 0.56371414 3.26954202 0 0 Z " fill="#004DAF" transform="translate(323,529)"/>
<path d="M0 0 C0.66 0.66 1.32 1.32 2 2 C1.01 2.495 1.01 2.495 0 3 C0 2.01 0 1.02 0 0 Z M-2 3 C-1.34 3.33 -0.68 3.66 0 4 C-1.24976756 7.65316671 -1.67098753 8.78065836 -5 11 C-5.99 11 -6.98 11 -8 11 C-8.99 11.495 -8.99 11.495 -10 12 C-9.3125 10.125 -9.3125 10.125 -8 8 C-6.34183216 7.31246699 -4.67540664 6.64438717 -3 6 C-2.67 5.01 -2.34 4.02 -2 3 Z " fill="#0057CA" transform="translate(504,517)"/>
<path d="M0 0 C0 0.66 0 1.32 0 2 C-1.32 2 -2.64 2 -4 2 C-4.33 3.65 -4.66 5.3 -5 7 C-6.32 6.67 -7.64 6.34 -9 6 C-8.625 3.5625 -8.625 3.5625 -8 1 C-5.29120665 -0.35439668 -2.99066732 -0.06501451 0 0 Z " fill="#013B87" transform="translate(487,411)"/>
<path d="M0 0 C0.66 0 1.32 0 2 0 C2 1.32 2 2.64 2 4 C2.99 4 3.98 4 5 4 C4.690625 4.53625 4.38125 5.0725 4.0625 5.625 C2.82172561 8.3984957 2.4090325 11.00042837 2 14 C1.67 14 1.34 14 1 14 C0.63906896 11.85529407 0.28642411 9.70919203 -0.0625 7.5625 C-0.25972656 6.36753906 -0.45695313 5.17257812 -0.66015625 3.94140625 C-0.77230469 2.97074219 -0.88445313 2.00007813 -1 1 C-0.67 0.67 -0.34 0.34 0 0 Z " fill="#0152BE" transform="translate(594,324)"/>
<path d="M0 0 C0.66 0 1.32 0 2 0 C2.33 1.98 2.66 3.96 3 6 C2.34 6 1.68 6 1 6 C0.67 6.99 0.34 7.98 0 9 C-1.32 7.02 -2.64 5.04 -4 3 C-3.01 3 -2.02 3 -1 3 C-0.67 2.01 -0.34 1.02 0 0 Z " fill="#0050BB" transform="translate(519,476)"/>
<path d="M0 0 C0.66 0.33 1.32 0.66 2 1 C1.67 1.99 1.34 2.98 1 4 C5.95 4 10.9 4 16 4 C16 4.33 16 4.66 16 5 C13.2291017 5.02696009 10.4584655 5.04681952 7.6875 5.0625 C6.50897461 5.07506836 6.50897461 5.07506836 5.30664062 5.08789062 C4.54931641 5.09111328 3.79199219 5.09433594 3.01171875 5.09765625 C1.96697388 5.10551147 1.96697388 5.10551147 0.90112305 5.11352539 C-1 5 -1 5 -4 4 C-4 3.34 -4 2.68 -4 2 C-2.68 2 -1.36 2 0 2 C0 1.34 0 0.68 0 0 Z " fill="#013D8A" transform="translate(499,419)"/>
<path d="M0 0 C1.32 0 2.64 0 4 0 C3.67 2.31 3.34 4.62 3 7 C3.99 7.33 4.98 7.66 6 8 C4.35 8 2.7 8 1 8 C-0.35439668 5.29120665 -0.06501451 2.99066732 0 0 Z " fill="#014298" transform="translate(515,415)"/>
<path d="M0 0 C0.66 0.33 1.32 0.66 2 1 C2.75 3.375 2.75 3.375 3 6 C2.01 7.485 2.01 7.485 1 9 C0.34 9 -0.32 9 -1 9 C-2.125 4.25 -2.125 4.25 -1 2 C-1.66 1.67 -2.32 1.34 -3 1 C-2.01 0.67 -1.02 0.34 0 0 Z " fill="#0252B9" transform="translate(541,444)"/>
<path d="M0 0 C1.32 0.33 2.64 0.66 4 1 C4 2.65 4 4.3 4 6 C2.02 6.99 2.02 6.99 0 8 C0 5.36 0 2.72 0 0 Z " fill="#0152B8" transform="translate(359,509)"/>
<path d="M0 0 C1.65 0 3.3 0 5 0 C5 4.29 5 8.58 5 13 C4.67 13 4.34 13 4 13 C4 9.7 4 6.4 4 3 C2.02 3.99 2.02 3.99 0 5 C0 3.35 0 1.7 0 0 Z " fill="#02469F" transform="translate(378,503)"/>
<path d="M0 0 C1.32 1.32 2.64 2.64 4 4 C3.34 5.98 2.68 7.96 2 10 C1.01 10 0.02 10 -1 10 C-1 6 -1 6 1 4 C0.6814823 1.89179203 0.6814823 1.89179203 0 0 Z " fill="#004FB8" transform="translate(594,290)"/>
<path d="M0 0 C0.66 0.33 1.32 0.66 2 1 C1.649375 1.556875 1.29875 2.11375 0.9375 2.6875 C-0.21845993 5.53886783 0.19032562 7.08517222 1 10 C0.01 10.33 -0.98 10.66 -2 11 C-2 10.34 -2 9.68 -2 9 C-3.32 8.67 -4.64 8.34 -6 8 C-5.38125 7.4225 -4.7625 6.845 -4.125 6.25 C-2.18652947 4.19750179 -1.09985751 2.56633418 0 0 Z " fill="#014298" transform="translate(325,607)"/>
<path d="M0 0 C2 3 2 3 2 5 C1.34 5 0.68 5 0 5 C0 5.66 0 6.32 0 7 C-1.9375 6.625 -1.9375 6.625 -4 6 C-4.33 5.34 -4.66 4.68 -5 4 C-3.35 2.68 -1.7 1.36 0 0 Z " fill="#013881" transform="translate(479,488)"/>
<path d="M0 0 C1.98 0.495 1.98 0.495 4 1 C3.34 1 2.68 1 2 1 C2 3.97 2 6.94 2 10 C1.01 9.67 0.02 9.34 -1 9 C-0.67 6.03 -0.34 3.06 0 0 Z " fill="#013C86" transform="translate(418,426)"/>
<path d="M0 0 C-0.99 0.33 -1.98 0.66 -3 1 C-3.165 1.66 -3.33 2.32 -3.5 3 C-3.665 3.66 -3.83 4.32 -4 5 C-4.99 5.33 -5.98 5.66 -7 6 C-6.75 3.625 -6.75 3.625 -6 1 C-2.69333333 -1.34666667 -2.69333333 -1.34666667 0 0 Z " fill="#014398" transform="translate(382,412)"/>
<path d="M0 0 C0.99 0 1.98 0 3 0 C3.33 1.32 3.66 2.64 4 4 C2.68 4.33 1.36 4.66 0 5 C-0.5625 3.0625 -0.5625 3.0625 -1 1 C-0.67 0.67 -0.34 0.34 0 0 Z " fill="#004091" transform="translate(579,555)"/>
<path d="M0 0 C0 0.66 0 1.32 0 2 C-3.3 2 -6.6 2 -10 2 C-6.64608848 -1.35391152 -4.35183427 -1.05855428 0 0 Z " fill="#0155C0" transform="translate(341,619)"/>
<path d="M0 0 C0.66 0 1.32 0 2 0 C2 2.31 2 4.62 2 7 C0.68 7.33 -0.64 7.66 -2 8 C-1.125 1.125 -1.125 1.125 0 0 Z " fill="#013B85" transform="translate(608,604)"/>
<path d="M0 0 C1.32 0 2.64 0 4 0 C3.67 1.65 3.34 3.3 3 5 C1.68 4.67 0.36 4.34 -1 4 C-0.67 2.68 -0.34 1.36 0 0 Z " fill="#0156C8" transform="translate(370,360)"/>
<path d="M0 0 C1.32 0.66 2.64 1.32 4 2 C4 2.99 4 3.98 4 5 C2.35 4.67 0.7 4.34 -1 4 C-0.67 2.68 -0.34 1.36 0 0 Z " fill="#013D8A" transform="translate(327,279)"/>
<path d="M0 0 C0.99 0.33 1.98 0.66 3 1 C2.01 2.98 1.02 4.96 0 7 C-0.66 6.67 -1.32 6.34 -2 6 C-1.49396008 3.83125748 -1.00016187 2.00032373 0 0 Z " fill="#00357A" transform="translate(314,586)"/>
</svg>
